<svg xmlns="http://www.w3.org/2000/svg" style="display:none"><symbol id="card-AS" viewBox="0 0 250 350"><rect x="3" y="3" width="244" height="344" rx="18" fill="#ffffff" stroke="#d6d6d6" stroke-width="2"/><g transform="translate(31,42)"><text x="0" y="0" text-anchor="middle" font-family="Arial, sans-serif" font-weight="700" font-size="36" fill="#1b1b1b">A</text><g transform="translate(0,21) scale(0.8)" fill="#1b1b1b"><path d="M0 -8 C 1 -5 9 -1.5 9 4 C 9 9 2.5 10 0 5 C -2.5 10 -9 9 -9 4 C -9 -1.5 -1 -5 0 -8 Z M -3.4 9.6 C -1.3 6.6 -0.6 5 0 3.1 C 0.6 5 1.3 6.6 3.4 9.6 Z"/></g></g><g transform="translate(219,308) rotate(180)"><text x="0" y="0" text-anchor="middle" font-family="Arial, sans-serif" font-weight="700" font-size="36" fill="#1b1b1b">A</text><g transform="translate(0,21) scale(0.8)" fill="#1b1b1b"><path d="M0 -8 C 1 -5 9 -1.5 9 4 C 9 9 2.5 10 0 5 C -2.5 10 -9 9 -9 4 C -9 -1.5 -1 -5 0 -8 Z M -3.4 9.6 C -1.3 6.6 -0.6 5 0 3.1 C 0.6 5 1.3 6.6 3.4 9.6 Z"/></g></g><g transform="translate(125.0,175.0) scale(3.9)" fill="#1b1b1b"><path d="M0 -8 C 1 -5 9 -1.5 9 4 C 9 9 2.5 10 0 5 C -2.5 10 -9 9 -9 4 C -9 -1.5 -1 -5 0 -8 Z M -3.4 9.6 C -1.3 6.6 -0.6 5 0 3.1 C 0.6 5 1.3 6.6 3.4 9.6 Z"/></g></symbol><symbol id="card-2S" viewBox="0 0 250 350"><rect x="3" y="3" width="244" height="344" rx="18" fill="#ffffff" stroke="#d6d6d6" stroke-width="2"/><g transform="translate(31,42)"><text x="0" y="0" text-anchor="middle" font-family="Arial, sans-serif" font-weight="700" font-size="36" fill="#1b1b1b">2</text><g transform="translate(0,21) scale(0.8)" fill="#1b1b1b"><path d="M0 -8 C 1 -5 9 -1.5 9 4 C 9 9 2.5 10 0 5 C -2.5 10 -9 9 -9 4 C -9 -1.5 -1 -5 0 -8 Z M -3.4 9.6 C -1.3 6.6 -0.6 5 0 3.1 C 0.6 5 1.3 6.6 3.4 9.6 Z"/></g></g><g transform="translate(219,308) rotate(180)"><text x="0" y="0" text-anchor="middle" font-family="Arial, sans-serif" font-weight="700" font-size="36" fill="#1b1b1b">2</text><g transform="translate(0,21) scale(0.8)" fill="#1b1b1b"><path d="M0 -8 C 1 -5 9 -1.5 9 4 C 9 9 2.5 10 0 5 C -2.5 10 -9 9 -9 4 C -9 -1.5 -1 -5 0 -8 Z M -3.4 9.6 C -1.3 6.6 -0.6 5 0 3.1 C 0.6 5 1.3 6.6 3.4 9.6 Z"/></g></g><g transform="translate(125.0,74.0) scale(1.6)" fill="#1b1b1b"><path d="M0 -8 C 1 -5 9 -1.5 9 4 C 9 9 2.5 10 0 5 C -2.5 10 -9 9 -9 4 C -9 -1.5 -1 -5 0 -8 Z M -3.4 9.6 C -1.3 6.6 -0.6 5 0 3.1 C 0.6 5 1.3 6.6 3.4 9.6 Z"/></g><g transform="translate(125.0,276.0) scale(1.6) rotate(180)" fill="#1b1b1b"><path d="M0 -8 C 1 -5 9 -1.5 9 4 C 9 9 2.5 10 0 5 C -2.5 10 -9 9 -9 4 C -9 -1.5 -1 -5 0 -8 Z M -3.4 9.6 C -1.3 6.6 -0.6 5 0 3.1 C 0.6 5 1.3 6.6 3.4 9.6 Z"/></g></symbol><symbol id="card-3S" viewBox="0 0 250 350"><rect x="3" y="3" width="244" height="344" rx="18" fill="#ffffff" stroke="#d6d6d6" stroke-width="2"/><g transform="translate(31,42)"><text x="0" y="0" text-anchor="middle" font-family="Arial, sans-serif" font-weight="700" font-size="36" fill="#1b1b1b">3</text><g transform="translate(0,21) scale(0.8)" fill="#1b1b1b"><path d="M0 -8 C 1 -5 9 -1.5 9 4 C 9 9 2.5 10 0 5 C -2.5 10 -9 9 -9 4 C -9 -1.5 -1 -5 0 -8 Z M -3.4 9.6 C -1.3 6.6 -0.6 5 0 3.1 C 0.6 5 1.3 6.6 3.4 9.6 Z"/></g></g><g transform="translate(219,308) rotate(180)"><text x="0" y="0" text-anchor="middle" font-family="Arial, sans-serif" font-weight="700" font-size="36" fill="#1b1b1b">3</text><g transform="translate(0,21) scale(0.8)" fill="#1b1b1b"><path d="M0 -8 C 1 -5 9 -1.5 9 4 C 9 9 2.5 10 0 5 C -2.5 10 -9 9 -9 4 C -9 -1.5 -1 -5 0 -8 Z M -3.4 9.6 C -1.3 6.6 -0.6 5 0 3.1 C 0.6 5 1.3 6.6 3.4 9.6 Z"/></g></g><g transform="translate(125.0,74.0) scale(1.6)" fill="#1b1b1b"><path d="M0 -8 C 1 -5 9 -1.5 9 4 C 9 9 2.5 10 0 5 C -2.5 10 -9 9 -9 4 C -9 -1.5 -1 -5 0 -8 Z M -3.4 9.6 C -1.3 6.6 -0.6 5 0 3.1 C 0.6 5 1.3 6.6 3.4 9.6 Z"/></g><g transform="translate(125.0,175.0) scale(1.6)" fill="#1b1b1b"><path d="M0 -8 C 1 -5 9 -1.5 9 4 C 9 9 2.5 10 0 5 C -2.5 10 -9 9 -9 4 C -9 -1.5 -1 -5 0 -8 Z M -3.4 9.6 C -1.3 6.6 -0.6 5 0 3.1 C 0.6 5 1.3 6.6 3.4 9.6 Z"/></g><g transform="translate(125.0,276.0) scale(1.6) rotate(180)" fill="#1b1b1b"><path d="M0 -8 C 1 -5 9 -1.5 9 4 C 9 9 2.5 10 0 5 C -2.5 10 -9 9 -9 4 C -9 -1.5 -1 -5 0 -8 Z M -3.4 9.6 C -1.3 6.6 -0.6 5 0 3.1 C 0.6 5 1.3 6.6 3.4 9.6 Z"/></g></symbol><symbol id="card-4S" viewBox="0 0 250 350"><rect x="3" y="3" width="244" height="344" rx="18" fill="#ffffff" stroke="#d6d6d6" stroke-width="2"/><g transform="translate(31,42)"><text x="0" y="0" text-anchor="middle" font-family="Arial, sans-serif" font-weight="700" font-size="36" fill="#1b1b1b">4</text><g transform="translate(0,21) scale(0.8)" fill="#1b1b1b"><path d="M0 -8 C 1 -5 9 -1.5 9 4 C 9 9 2.5 10 0 5 C -2.5 10 -9 9 -9 4 C -9 -1.5 -1 -5 0 -8 Z M -3.4 9.6 C -1.3 6.6 -0.6 5 0 3.1 C 0.6 5 1.3 6.6 3.4 9.6 Z"/></g></g><g transform="translate(219,308) rotate(180)"><text x="0" y="0" text-anchor="middle" font-family="Arial, sans-serif" font-weight="700" font-size="36" fill="#1b1b1b">4</text><g transform="translate(0,21) scale(0.8)" fill="#1b1b1b"><path d="M0 -8 C 1 -5 9 -1.5 9 4 C 9 9 2.5 10 0 5 C -2.5 10 -9 9 -9 4 C -9 -1.5 -1 -5 0 -8 Z M -3.4 9.6 C -1.3 6.6 -0.6 5 0 3.1 C 0.6 5 1.3 6.6 3.4 9.6 Z"/></g></g><g transform="translate(84.0,74.0) scale(1.6)" fill="#1b1b1b"><path d="M0 -8 C 1 -5 9 -1.5 9 4 C 9 9 2.5 10 0 5 C -2.5 10 -9 9 -9 4 C -9 -1.5 -1 -5 0 -8 Z M -3.4 9.6 C -1.3 6.6 -0.6 5 0 3.1 C 0.6 5 1.3 6.6 3.4 9.6 Z"/></g><g transform="translate(166.0,74.0) scale(1.6)" fill="#1b1b1b"><path d="M0 -8 C 1 -5 9 -1.5 9 4 C 9 9 2.5 10 0 5 C -2.5 10 -9 9 -9 4 C -9 -1.5 -1 -5 0 -8 Z M -3.4 9.6 C -1.3 6.6 -0.6 5 0 3.1 C 0.6 5 1.3 6.6 3.4 9.6 Z"/></g><g transform="translate(84.0,276.0) scale(1.6) rotate(180)" fill="#1b1b1b"><path d="M0 -8 C 1 -5 9 -1.5 9 4 C 9 9 2.5 10 0 5 C -2.5 10 -9 9 -9 4 C -9 -1.5 -1 -5 0 -8 Z M -3.4 9.6 C -1.3 6.6 -0.6 5 0 3.1 C 0.6 5 1.3 6.6 3.4 9.6 Z"/></g><g transform="translate(166.0,276.0) scale(1.6) rotate(180)" fill="#1b1b1b"><path d="M0 -8 C 1 -5 9 -1.5 9 4 C 9 9 2.5 10 0 5 C -2.5 10 -9 9 -9 4 C -9 -1.5 -1 -5 0 -8 Z M -3.4 9.6 C -1.3 6.6 -0.6 5 0 3.1 C 0.6 5 1.3 6.6 3.4 9.6 Z"/></g></symbol><symbol id="card-5S" viewBox="0 0 250 350"><rect x="3" y="3" width="244" height="344" rx="18" fill="#ffffff" stroke="#d6d6d6" stroke-width="2"/><g transform="translate(31,42)"><text x="0" y="0" text-anchor="middle" font-family="Arial, sans-serif" font-weight="700" font-size="36" fill="#1b1b1b">5</text><g transform="translate(0,21) scale(0.8)" fill="#1b1b1b"><path d="M0 -8 C 1 -5 9 -1.5 9 4 C 9 9 2.5 10 0 5 C -2.5 10 -9 9 -9 4 C -9 -1.5 -1 -5 0 -8 Z M -3.4 9.6 C -1.3 6.6 -0.6 5 0 3.1 C 0.6 5 1.3 6.6 3.4 9.6 Z"/></g></g><g transform="translate(219,308) rotate(180)"><text x="0" y="0" text-anchor="middle" font-family="Arial, sans-serif" font-weight="700" font-size="36" fill="#1b1b1b">5</text><g transform="translate(0,21) scale(0.8)" fill="#1b1b1b"><path d="M0 -8 C 1 -5 9 -1.5 9 4 C 9 9 2.5 10 0 5 C -2.5 10 -9 9 -9 4 C -9 -1.5 -1 -5 0 -8 Z M -3.4 9.6 C -1.3 6.6 -0.6 5 0 3.1 C 0.6 5 1.3 6.6 3.4 9.6 Z"/></g></g><g transform="translate(84.0,74.0) scale(1.6)" fill="#1b1b1b"><path d="M0 -8 C 1 -5 9 -1.5 9 4 C 9 9 2.5 10 0 5 C -2.5 10 -9 9 -9 4 C -9 -1.5 -1 -5 0 -8 Z M -3.4 9.6 C -1.3 6.6 -0.6 5 0 3.1 C 0.6 5 1.3 6.6 3.4 9.6 Z"/></g><g transform="translate(166.0,74.0) scale(1.6)" fill="#1b1b1b"><path d="M0 -8 C 1 -5 9 -1.5 9 4 C 9 9 2.5 10 0 5 C -2.5 10 -9 9 -9 4 C -9 -1.5 -1 -5 0 -8 Z M -3.4 9.6 C -1.3 6.6 -0.6 5 0 3.1 C 0.6 5 1.3 6.6 3.4 9.6 Z"/></g><g transform="translate(125.0,175.0) scale(1.6)" fill="#1b1b1b"><path d="M0 -8 C 1 -5 9 -1.5 9 4 C 9 9 2.5 10 0 5 C -2.5 10 -9 9 -9 4 C -9 -1.5 -1 -5 0 -8 Z M -3.4 9.6 C -1.3 6.6 -0.6 5 0 3.1 C 0.6 5 1.3 6.6 3.4 9.6 Z"/></g><g transform="translate(84.0,276.0) scale(1.6) rotate(180)" fill="#1b1b1b"><path d="M0 -8 C 1 -5 9 -1.5 9 4 C 9 9 2.5 10 0 5 C -2.5 10 -9 9 -9 4 C -9 -1.5 -1 -5 0 -8 Z M -3.4 9.6 C -1.3 6.6 -0.6 5 0 3.1 C 0.6 5 1.3 6.6 3.4 9.6 Z"/></g><g transform="translate(166.0,276.0) scale(1.6) rotate(180)" fill="#1b1b1b"><path d="M0 -8 C 1 -5 9 -1.5 9 4 C 9 9 2.5 10 0 5 C -2.5 10 -9 9 -9 4 C -9 -1.5 -1 -5 0 -8 Z M -3.4 9.6 C -1.3 6.6 -0.6 5 0 3.1 C 0.6 5 1.3 6.6 3.4 9.6 Z"/></g></symbol><symbol id="card-6S" viewBox="0 0 250 350"><rect x="3" y="3" width="244" height="344" rx="18" fill="#ffffff" stroke="#d6d6d6" stroke-width="2"/><g transform="translate(31,42)"><text x="0" y="0" text-anchor="middle" font-family="Arial, sans-serif" font-weight="700" font-size="36" fill="#1b1b1b">6</text><g transform="translate(0,21) scale(0.8)" fill="#1b1b1b"><path d="M0 -8 C 1 -5 9 -1.5 9 4 C 9 9 2.5 10 0 5 C -2.5 10 -9 9 -9 4 C -9 -1.5 -1 -5 0 -8 Z M -3.4 9.6 C -1.3 6.6 -0.6 5 0 3.1 C 0.6 5 1.3 6.6 3.4 9.6 Z"/></g></g><g transform="translate(219,308) rotate(180)"><text x="0" y="0" text-anchor="middle" font-family="Arial, sans-serif" font-weight="700" font-size="36" fill="#1b1b1b">6</text><g transform="translate(0,21) scale(0.8)" fill="#1b1b1b"><path d="M0 -8 C 1 -5 9 -1.5 9 4 C 9 9 2.5 10 0 5 C -2.5 10 -9 9 -9 4 C -9 -1.5 -1 -5 0 -8 Z M -3.4 9.6 C -1.3 6.6 -0.6 5 0 3.1 C 0.6 5 1.3 6.6 3.4 9.6 Z"/></g></g><g transform="translate(84.0,74.0) scale(1.6)" fill="#1b1b1b"><path d="M0 -8 C 1 -5 9 -1.5 9 4 C 9 9 2.5 10 0 5 C -2.5 10 -9 9 -9 4 C -9 -1.5 -1 -5 0 -8 Z M -3.4 9.6 C -1.3 6.6 -0.6 5 0 3.1 C 0.6 5 1.3 6.6 3.4 9.6 Z"/></g><g transform="translate(166.0,74.0) scale(1.6)" fill="#1b1b1b"><path d="M0 -8 C 1 -5 9 -1.5 9 4 C 9 9 2.5 10 0 5 C -2.5 10 -9 9 -9 4 C -9 -1.5 -1 -5 0 -8 Z M -3.4 9.6 C -1.3 6.6 -0.6 5 0 3.1 C 0.6 5 1.3 6.6 3.4 9.6 Z"/></g><g transform="translate(84.0,175.0) scale(1.6)" fill="#1b1b1b"><path d="M0 -8 C 1 -5 9 -1.5 9 4 C 9 9 2.5 10 0 5 C -2.5 10 -9 9 -9 4 C -9 -1.5 -1 -5 0 -8 Z M -3.4 9.6 C -1.3 6.6 -0.6 5 0 3.1 C 0.6 5 1.3 6.6 3.4 9.6 Z"/></g><g transform="translate(166.0,175.0) scale(1.6)" fill="#1b1b1b"><path d="M0 -8 C 1 -5 9 -1.5 9 4 C 9 9 2.5 10 0 5 C -2.5 10 -9 9 -9 4 C -9 -1.5 -1 -5 0 -8 Z M -3.4 9.6 C -1.3 6.6 -0.6 5 0 3.1 C 0.6 5 1.3 6.6 3.4 9.6 Z"/></g><g transform="translate(84.0,276.0) scale(1.6) rotate(180)" fill="#1b1b1b"><path d="M0 -8 C 1 -5 9 -1.5 9 4 C 9 9 2.5 10 0 5 C -2.5 10 -9 9 -9 4 C -9 -1.5 -1 -5 0 -8 Z M -3.4 9.6 C -1.3 6.6 -0.6 5 0 3.1 C 0.6 5 1.3 6.6 3.4 9.6 Z"/></g><g transform="translate(166.0,276.0) scale(1.6) rotate(180)" fill="#1b1b1b"><path d="M0 -8 C 1 -5 9 -1.5 9 4 C 9 9 2.5 10 0 5 C -2.5 10 -9 9 -9 4 C -9 -1.5 -1 -5 0 -8 Z M -3.4 9.6 C -1.3 6.6 -0.6 5 0 3.1 C 0.6 5 1.3 6.6 3.4 9.6 Z"/></g></symbol><symbol id="card-7S" viewBox="0 0 250 350"><rect x="3" y="3" width="244" height="344" rx="18" fill="#ffffff" stroke="#d6d6d6" stroke-width="2"/><g transform="translate(31,42)"><text x="0" y="0" text-anchor="middle" font-family="Arial, sans-serif" font-weight="700" font-size="36" fill="#1b1b1b">7</text><g transform="translate(0,21) scale(0.8)" fill="#1b1b1b"><path d="M0 -8 C 1 -5 9 -1.5 9 4 C 9 9 2.5 10 0 5 C -2.5 10 -9 9 -9 4 C -9 -1.5 -1 -5 0 -8 Z M -3.4 9.6 C -1.3 6.6 -0.6 5 0 3.1 C 0.6 5 1.3 6.6 3.4 9.6 Z"/></g></g><g transform="translate(219,308) rotate(180)"><text x="0" y="0" text-anchor="middle" font-family="Arial, sans-serif" font-weight="700" font-size="36" fill="#1b1b1b">7</text><g transform="translate(0,21) scale(0.8)" fill="#1b1b1b"><path d="M0 -8 C 1 -5 9 -1.5 9 4 C 9 9 2.5 10 0 5 C -2.5 10 -9 9 -9 4 C -9 -1.5 -1 -5 0 -8 Z M -3.4 9.6 C -1.3 6.6 -0.6 5 0 3.1 C 0.6 5 1.3 6.6 3.4 9.6 Z"/></g></g><g transform="translate(84.0,74.0) scale(1.6)" fill="#1b1b1b"><path d="M0 -8 C 1 -5 9 -1.5 9 4 C 9 9 2.5 10 0 5 C -2.5 10 -9 9 -9 4 C -9 -1.5 -1 -5 0 -8 Z M -3.4 9.6 C -1.3 6.6 -0.6 5 0 3.1 C 0.6 5 1.3 6.6 3.4 9.6 Z"/></g><g transform="translate(166.0,74.0) scale(1.6)" fill="#1b1b1b"><path d="M0 -8 C 1 -5 9 -1.5 9 4 C 9 9 2.5 10 0 5 C -2.5 10 -9 9 -9 4 C -9 -1.5 -1 -5 0 -8 Z M -3.4 9.6 C -1.3 6.6 -0.6 5 0 3.1 C 0.6 5 1.3 6.6 3.4 9.6 Z"/></g><g transform="translate(125.0,124.5) scale(1.6)" fill="#1b1b1b"><path d="M0 -8 C 1 -5 9 -1.5 9 4 C 9 9 2.5 10 0 5 C -2.5 10 -9 9 -9 4 C -9 -1.5 -1 -5 0 -8 Z M -3.4 9.6 C -1.3 6.6 -0.6 5 0 3.1 C 0.6 5 1.3 6.6 3.4 9.6 Z"/></g><g transform="translate(84.0,175.0) scale(1.6)" fill="#1b1b1b"><path d="M0 -8 C 1 -5 9 -1.5 9 4 C 9 9 2.5 10 0 5 C -2.5 10 -9 9 -9 4 C -9 -1.5 -1 -5 0 -8 Z M -3.4 9.6 C -1.3 6.6 -0.6 5 0 3.1 C 0.6 5 1.3 6.6 3.4 9.6 Z"/></g><g transform="translate(166.0,175.0) scale(1.6)" fill="#1b1b1b"><path d="M0 -8 C 1 -5 9 -1.5 9 4 C 9 9 2.5 10 0 5 C -2.5 10 -9 9 -9 4 C -9 -1.5 -1 -5 0 -8 Z M -3.4 9.6 C -1.3 6.6 -0.6 5 0 3.1 C 0.6 5 1.3 6.6 3.4 9.6 Z"/></g><g transform="translate(84.0,276.0) scale(1.6) rotate(180)" fill="#1b1b1b"><path d="M0 -8 C 1 -5 9 -1.5 9 4 C 9 9 2.5 10 0 5 C -2.5 10 -9 9 -9 4 C -9 -1.5 -1 -5 0 -8 Z M -3.4 9.6 C -1.3 6.6 -0.6 5 0 3.1 C 0.6 5 1.3 6.6 3.4 9.6 Z"/></g><g transform="translate(166.0,276.0) scale(1.6) rotate(180)" fill="#1b1b1b"><path d="M0 -8 C 1 -5 9 -1.5 9 4 C 9 9 2.5 10 0 5 C -2.5 10 -9 9 -9 4 C -9 -1.5 -1 -5 0 -8 Z M -3.4 9.6 C -1.3 6.6 -0.6 5 0 3.1 C 0.6 5 1.3 6.6 3.4 9.6 Z"/></g></symbol><symbol id="card-8S" viewBox="0 0 250 350"><rect x="3" y="3" width="244" height="344" rx="18" fill="#ffffff" stroke="#d6d6d6" stroke-width="2"/><g transform="translate(31,42)"><text x="0" y="0" text-anchor="middle" font-family="Arial, sans-serif" font-weight="700" font-size="36" fill="#1b1b1b">8</text><g transform="translate(0,21) scale(0.8)" fill="#1b1b1b"><path d="M0 -8 C 1 -5 9 -1.5 9 4 C 9 9 2.5 10 0 5 C -2.5 10 -9 9 -9 4 C -9 -1.5 -1 -5 0 -8 Z M -3.4 9.6 C -1.3 6.6 -0.6 5 0 3.1 C 0.6 5 1.3 6.6 3.4 9.6 Z"/></g></g><g transform="translate(219,308) rotate(180)"><text x="0" y="0" text-anchor="middle" font-family="Arial, sans-serif" font-weight="700" font-size="36" fill="#1b1b1b">8</text><g transform="translate(0,21) scale(0.8)" fill="#1b1b1b"><path d="M0 -8 C 1 -5 9 -1.5 9 4 C 9 9 2.5 10 0 5 C -2.5 10 -9 9 -9 4 C -9 -1.5 -1 -5 0 -8 Z M -3.4 9.6 C -1.3 6.6 -0.6 5 0 3.1 C 0.6 5 1.3 6.6 3.4 9.6 Z"/></g></g><g transform="translate(84.0,74.0) scale(1.6)" fill="#1b1b1b"><path d="M0 -8 C 1 -5 9 -1.5 9 4 C 9 9 2.5 10 0 5 C -2.5 10 -9 9 -9 4 C -9 -1.5 -1 -5 0 -8 Z M -3.4 9.6 C -1.3 6.6 -0.6 5 0 3.1 C 0.6 5 1.3 6.6 3.4 9.6 Z"/></g><g transform="translate(166.0,74.0) scale(1.6)" fill="#1b1b1b"><path d="M0 -8 C 1 -5 9 -1.5 9 4 C 9 9 2.5 10 0 5 C -2.5 10 -9 9 -9 4 C -9 -1.5 -1 -5 0 -8 Z M -3.4 9.6 C -1.3 6.6 -0.6 5 0 3.1 C 0.6 5 1.3 6.6 3.4 9.6 Z"/></g><g transform="translate(125.0,124.5) scale(1.6)" fill="#1b1b1b"><path d="M0 -8 C 1 -5 9 -1.5 9 4 C 9 9 2.5 10 0 5 C -2.5 10 -9 9 -9 4 C -9 -1.5 -1 -5 0 -8 Z M -3.4 9.6 C -1.3 6.6 -0.6 5 0 3.1 C 0.6 5 1.3 6.6 3.4 9.6 Z"/></g><g transform="translate(84.0,175.0) scale(1.6)" fill="#1b1b1b"><path d="M0 -8 C 1 -5 9 -1.5 9 4 C 9 9 2.5 10 0 5 C -2.5 10 -9 9 -9 4 C -9 -1.5 -1 -5 0 -8 Z M -3.4 9.6 C -1.3 6.6 -0.6 5 0 3.1 C 0.6 5 1.3 6.6 3.4 9.6 Z"/></g><g transform="translate(166.0,175.0) scale(1.6)" fill="#1b1b1b"><path d="M0 -8 C 1 -5 9 -1.5 9 4 C 9 9 2.5 10 0 5 C -2.5 10 -9 9 -9 4 C -9 -1.5 -1 -5 0 -8 Z M -3.4 9.6 C -1.3 6.6 -0.6 5 0 3.1 C 0.6 5 1.3 6.6 3.4 9.6 Z"/></g><g transform="translate(125.0,225.5) scale(1.6) rotate(180)" fill="#1b1b1b"><path d="M0 -8 C 1 -5 9 -1.5 9 4 C 9 9 2.5 10 0 5 C -2.5 10 -9 9 -9 4 C -9 -1.5 -1 -5 0 -8 Z M -3.4 9.6 C -1.3 6.6 -0.6 5 0 3.1 C 0.6 5 1.3 6.6 3.4 9.6 Z"/></g><g transform="translate(84.0,276.0) scale(1.6) rotate(180)" fill="#1b1b1b"><path d="M0 -8 C 1 -5 9 -1.5 9 4 C 9 9 2.5 10 0 5 C -2.5 10 -9 9 -9 4 C -9 -1.5 -1 -5 0 -8 Z M -3.4 9.6 C -1.3 6.6 -0.6 5 0 3.1 C 0.6 5 1.3 6.6 3.4 9.6 Z"/></g><g transform="translate(166.0,276.0) scale(1.6) rotate(180)" fill="#1b1b1b"><path d="M0 -8 C 1 -5 9 -1.5 9 4 C 9 9 2.5 10 0 5 C -2.5 10 -9 9 -9 4 C -9 -1.5 -1 -5 0 -8 Z M -3.4 9.6 C -1.3 6.6 -0.6 5 0 3.1 C 0.6 5 1.3 6.6 3.4 9.6 Z"/></g></symbol><symbol id="card-9S" viewBox="0 0 250 350"><rect x="3" y="3" width="244" height="344" rx="18" fill="#ffffff" stroke="#d6d6d6" stroke-width="2"/><g transform="translate(31,42)"><text x="0" y="0" text-anchor="middle" font-family="Arial, sans-serif" font-weight="700" font-size="36" fill="#1b1b1b">9</text><g transform="translate(0,21) scale(0.8)" fill="#1b1b1b"><path d="M0 -8 C 1 -5 9 -1.5 9 4 C 9 9 2.5 10 0 5 C -2.5 10 -9 9 -9 4 C -9 -1.5 -1 -5 0 -8 Z M -3.4 9.6 C -1.3 6.6 -0.6 5 0 3.1 C 0.6 5 1.3 6.6 3.4 9.6 Z"/></g></g><g transform="translate(219,308) rotate(180)"><text x="0" y="0" text-anchor="middle" font-family="Arial, sans-serif" font-weight="700" font-size="36" fill="#1b1b1b">9</text><g transform="translate(0,21) scale(0.8)" fill="#1b1b1b"><path d="M0 -8 C 1 -5 9 -1.5 9 4 C 9 9 2.5 10 0 5 C -2.5 10 -9 9 -9 4 C -9 -1.5 -1 -5 0 -8 Z M -3.4 9.6 C -1.3 6.6 -0.6 5 0 3.1 C 0.6 5 1.3 6.6 3.4 9.6 Z"/></g></g><g transform="translate(84.0,74.0) scale(1.6)" fill="#1b1b1b"><path d="M0 -8 C 1 -5 9 -1.5 9 4 C 9 9 2.5 10 0 5 C -2.5 10 -9 9 -9 4 C -9 -1.5 -1 -5 0 -8 Z M -3.4 9.6 C -1.3 6.6 -0.6 5 0 3.1 C 0.6 5 1.3 6.6 3.4 9.6 Z"/></g><g transform="translate(166.0,74.0) scale(1.6)" fill="#1b1b1b"><path d="M0 -8 C 1 -5 9 -1.5 9 4 C 9 9 2.5 10 0 5 C -2.5 10 -9 9 -9 4 C -9 -1.5 -1 -5 0 -8 Z M -3.4 9.6 C -1.3 6.6 -0.6 5 0 3.1 C 0.6 5 1.3 6.6 3.4 9.6 Z"/></g><g transform="translate(84.0,141.3) scale(1.6)" fill="#1b1b1b"><path d="M0 -8 C 1 -5 9 -1.5 9 4 C 9 9 2.5 10 0 5 C -2.5 10 -9 9 -9 4 C -9 -1.5 -1 -5 0 -8 Z M -3.4 9.6 C -1.3 6.6 -0.6 5 0 3.1 C 0.6 5 1.3 6.6 3.4 9.6 Z"/></g><g transform="translate(166.0,141.3) scale(1.6)" fill="#1b1b1b"><path d="M0 -8 C 1 -5 9 -1.5 9 4 C 9 9 2.5 10 0 5 C -2.5 10 -9 9 -9 4 C -9 -1.5 -1 -5 0 -8 Z M -3.4 9.6 C -1.3 6.6 -0.6 5 0 3.1 C 0.6 5 1.3 6.6 3.4 9.6 Z"/></g><g transform="translate(125.0,175.0) scale(1.6)" fill="#1b1b1b"><path d="M0 -8 C 1 -5 9 -1.5 9 4 C 9 9 2.5 10 0 5 C -2.5 10 -9 9 -9 4 C -9 -1.5 -1 -5 0 -8 Z M -3.4 9.6 C -1.3 6.6 -0.6 5 0 3.1 C 0.6 5 1.3 6.6 3.4 9.6 Z"/></g><g transform="translate(84.0,208.7) scale(1.6) rotate(180)" fill="#1b1b1b"><path d="M0 -8 C 1 -5 9 -1.5 9 4 C 9 9 2.5 10 0 5 C -2.5 10 -9 9 -9 4 C -9 -1.5 -1 -5 0 -8 Z M -3.4 9.6 C -1.3 6.6 -0.6 5 0 3.1 C 0.6 5 1.3 6.6 3.4 9.6 Z"/></g><g transform="translate(166.0,208.7) scale(1.6) rotate(180)" fill="#1b1b1b"><path d="M0 -8 C 1 -5 9 -1.5 9 4 C 9 9 2.5 10 0 5 C -2.5 10 -9 9 -9 4 C -9 -1.5 -1 -5 0 -8 Z M -3.4 9.6 C -1.3 6.6 -0.6 5 0 3.1 C 0.6 5 1.3 6.6 3.4 9.6 Z"/></g><g transform="translate(84.0,276.0) scale(1.6) rotate(180)" fill="#1b1b1b"><path d="M0 -8 C 1 -5 9 -1.5 9 4 C 9 9 2.5 10 0 5 C -2.5 10 -9 9 -9 4 C -9 -1.5 -1 -5 0 -8 Z M -3.4 9.6 C -1.3 6.6 -0.6 5 0 3.1 C 0.6 5 1.3 6.6 3.4 9.6 Z"/></g><g transform="translate(166.0,276.0) scale(1.6) rotate(180)" fill="#1b1b1b"><path d="M0 -8 C 1 -5 9 -1.5 9 4 C 9 9 2.5 10 0 5 C -2.5 10 -9 9 -9 4 C -9 -1.5 -1 -5 0 -8 Z M -3.4 9.6 C -1.3 6.6 -0.6 5 0 3.1 C 0.6 5 1.3 6.6 3.4 9.6 Z"/></g></symbol><symbol id="card-10S" viewBox="0 0 250 350"><rect x="3" y="3" width="244" height="344" rx="18" fill="#ffffff" stroke="#d6d6d6" stroke-width="2"/><g transform="translate(31,42)"><text x="0" y="0" text-anchor="middle" font-family="Arial, sans-serif" font-weight="700" font-size="30" fill="#1b1b1b">10</text><g transform="translate(0,21) scale(0.8)" fill="#1b1b1b"><path d="M0 -8 C 1 -5 9 -1.5 9 4 C 9 9 2.5 10 0 5 C -2.5 10 -9 9 -9 4 C -9 -1.5 -1 -5 0 -8 Z M -3.4 9.6 C -1.3 6.6 -0.6 5 0 3.1 C 0.6 5 1.3 6.6 3.4 9.6 Z"/></g></g><g transform="translate(219,308) rotate(180)"><text x="0" y="0" text-anchor="middle" font-family="Arial, sans-serif" font-weight="700" font-size="30" fill="#1b1b1b">10</text><g transform="translate(0,21) scale(0.8)" fill="#1b1b1b"><path d="M0 -8 C 1 -5 9 -1.5 9 4 C 9 9 2.5 10 0 5 C -2.5 10 -9 9 -9 4 C -9 -1.5 -1 -5 0 -8 Z M -3.4 9.6 C -1.3 6.6 -0.6 5 0 3.1 C 0.6 5 1.3 6.6 3.4 9.6 Z"/></g></g><g transform="translate(84.0,74.0) scale(1.6)" fill="#1b1b1b"><path d="M0 -8 C 1 -5 9 -1.5 9 4 C 9 9 2.5 10 0 5 C -2.5 10 -9 9 -9 4 C -9 -1.5 -1 -5 0 -8 Z M -3.4 9.6 C -1.3 6.6 -0.6 5 0 3.1 C 0.6 5 1.3 6.6 3.4 9.6 Z"/></g><g transform="translate(166.0,74.0) scale(1.6)" fill="#1b1b1b"><path d="M0 -8 C 1 -5 9 -1.5 9 4 C 9 9 2.5 10 0 5 C -2.5 10 -9 9 -9 4 C -9 -1.5 -1 -5 0 -8 Z M -3.4 9.6 C -1.3 6.6 -0.6 5 0 3.1 C 0.6 5 1.3 6.6 3.4 9.6 Z"/></g><g transform="translate(125.0,107.7) scale(1.6)" fill="#1b1b1b"><path d="M0 -8 C 1 -5 9 -1.5 9 4 C 9 9 2.5 10 0 5 C -2.5 10 -9 9 -9 4 C -9 -1.5 -1 -5 0 -8 Z M -3.4 9.6 C -1.3 6.6 -0.6 5 0 3.1 C 0.6 5 1.3 6.6 3.4 9.6 Z"/></g><g transform="translate(84.0,141.3) scale(1.6)" fill="#1b1b1b"><path d="M0 -8 C 1 -5 9 -1.5 9 4 C 9 9 2.5 10 0 5 C -2.5 10 -9 9 -9 4 C -9 -1.5 -1 -5 0 -8 Z M -3.4 9.6 C -1.3 6.6 -0.6 5 0 3.1 C 0.6 5 1.3 6.6 3.4 9.6 Z"/></g><g transform="translate(166.0,141.3) scale(1.6)" fill="#1b1b1b"><path d="M0 -8 C 1 -5 9 -1.5 9 4 C 9 9 2.5 10 0 5 C -2.5 10 -9 9 -9 4 C -9 -1.5 -1 -5 0 -8 Z M -3.4 9.6 C -1.3 6.6 -0.6 5 0 3.1 C 0.6 5 1.3 6.6 3.4 9.6 Z"/></g><g transform="translate(84.0,208.7) scale(1.6) rotate(180)" fill="#1b1b1b"><path d="M0 -8 C 1 -5 9 -1.5 9 4 C 9 9 2.5 10 0 5 C -2.5 10 -9 9 -9 4 C -9 -1.5 -1 -5 0 -8 Z M -3.4 9.6 C -1.3 6.6 -0.6 5 0 3.1 C 0.6 5 1.3 6.6 3.4 9.6 Z"/></g><g transform="translate(166.0,208.7) scale(1.6) rotate(180)" fill="#1b1b1b"><path d="M0 -8 C 1 -5 9 -1.5 9 4 C 9 9 2.5 10 0 5 C -2.5 10 -9 9 -9 4 C -9 -1.5 -1 -5 0 -8 Z M -3.4 9.6 C -1.3 6.6 -0.6 5 0 3.1 C 0.6 5 1.3 6.6 3.4 9.6 Z"/></g><g transform="translate(125.0,242.3) scale(1.6) rotate(180)" fill="#1b1b1b"><path d="M0 -8 C 1 -5 9 -1.5 9 4 C 9 9 2.5 10 0 5 C -2.5 10 -9 9 -9 4 C -9 -1.5 -1 -5 0 -8 Z M -3.4 9.6 C -1.3 6.6 -0.6 5 0 3.1 C 0.6 5 1.3 6.6 3.4 9.6 Z"/></g><g transform="translate(84.0,276.0) scale(1.6) rotate(180)" fill="#1b1b1b"><path d="M0 -8 C 1 -5 9 -1.5 9 4 C 9 9 2.5 10 0 5 C -2.5 10 -9 9 -9 4 C -9 -1.5 -1 -5 0 -8 Z M -3.4 9.6 C -1.3 6.6 -0.6 5 0 3.1 C 0.6 5 1.3 6.6 3.4 9.6 Z"/></g><g transform="translate(166.0,276.0) scale(1.6) rotate(180)" fill="#1b1b1b"><path d="M0 -8 C 1 -5 9 -1.5 9 4 C 9 9 2.5 10 0 5 C -2.5 10 -9 9 -9 4 C -9 -1.5 -1 -5 0 -8 Z M -3.4 9.6 C -1.3 6.6 -0.6 5 0 3.1 C 0.6 5 1.3 6.6 3.4 9.6 Z"/></g></symbol><symbol id="card-JS" viewBox="0 0 250 350"><rect x="3" y="3" width="244" height="344" rx="18" fill="#ffffff" stroke="#d6d6d6" stroke-width="2"/><g transform="translate(31,42)"><text x="0" y="0" text-anchor="middle" font-family="Arial, sans-serif" font-weight="700" font-size="36" fill="#1b1b1b">J</text><g transform="translate(0,21) scale(0.8)" fill="#1b1b1b"><path d="M0 -8 C 1 -5 9 -1.5 9 4 C 9 9 2.5 10 0 5 C -2.5 10 -9 9 -9 4 C -9 -1.5 -1 -5 0 -8 Z M -3.4 9.6 C -1.3 6.6 -0.6 5 0 3.1 C 0.6 5 1.3 6.6 3.4 9.6 Z"/></g></g><g transform="translate(219,308) rotate(180)"><text x="0" y="0" text-anchor="middle" font-family="Arial, sans-serif" font-weight="700" font-size="36" fill="#1b1b1b">J</text><g transform="translate(0,21) scale(0.8)" fill="#1b1b1b"><path d="M0 -8 C 1 -5 9 -1.5 9 4 C 9 9 2.5 10 0 5 C -2.5 10 -9 9 -9 4 C -9 -1.5 -1 -5 0 -8 Z M -3.4 9.6 C -1.3 6.6 -0.6 5 0 3.1 C 0.6 5 1.3 6.6 3.4 9.6 Z"/></g></g><rect x="42" y="50" width="166" height="250" rx="10" fill="none" stroke="#1b1b1b" stroke-width="2" opacity=".4"/><rect x="48" y="56" width="154" height="238" rx="8" fill="none" stroke="#c9a24a" stroke-width="1.5" opacity=".7"/><g transform="translate(125.0,92.0) scale(1.8)" fill="#1b1b1b"><path d="M0 -8 C 1 -5 9 -1.5 9 4 C 9 9 2.5 10 0 5 C -2.5 10 -9 9 -9 4 C -9 -1.5 -1 -5 0 -8 Z M -3.4 9.6 C -1.3 6.6 -0.6 5 0 3.1 C 0.6 5 1.3 6.6 3.4 9.6 Z"/></g><g transform="translate(125.0,258.0) scale(1.8) rotate(180)" fill="#1b1b1b"><path d="M0 -8 C 1 -5 9 -1.5 9 4 C 9 9 2.5 10 0 5 C -2.5 10 -9 9 -9 4 C -9 -1.5 -1 -5 0 -8 Z M -3.4 9.6 C -1.3 6.6 -0.6 5 0 3.1 C 0.6 5 1.3 6.6 3.4 9.6 Z"/></g><text x="125" y="206" text-anchor="middle" font-family="Georgia, serif" font-weight="700" font-size="120" fill="#1b1b1b">J</text></symbol><symbol id="card-QS" viewBox="0 0 250 350"><rect x="3" y="3" width="244" height="344" rx="18" fill="#ffffff" stroke="#d6d6d6" stroke-width="2"/><g transform="translate(31,42)"><text x="0" y="0" text-anchor="middle" font-family="Arial, sans-serif" font-weight="700" font-size="36" fill="#1b1b1b">Q</text><g transform="translate(0,21) scale(0.8)" fill="#1b1b1b"><path d="M0 -8 C 1 -5 9 -1.5 9 4 C 9 9 2.5 10 0 5 C -2.5 10 -9 9 -9 4 C -9 -1.5 -1 -5 0 -8 Z M -3.4 9.6 C -1.3 6.6 -0.6 5 0 3.1 C 0.6 5 1.3 6.6 3.4 9.6 Z"/></g></g><g transform="translate(219,308) rotate(180)"><text x="0" y="0" text-anchor="middle" font-family="Arial, sans-serif" font-weight="700" font-size="36" fill="#1b1b1b">Q</text><g transform="translate(0,21) scale(0.8)" fill="#1b1b1b"><path d="M0 -8 C 1 -5 9 -1.5 9 4 C 9 9 2.5 10 0 5 C -2.5 10 -9 9 -9 4 C -9 -1.5 -1 -5 0 -8 Z M -3.4 9.6 C -1.3 6.6 -0.6 5 0 3.1 C 0.6 5 1.3 6.6 3.4 9.6 Z"/></g></g><rect x="42" y="50" width="166" height="250" rx="10" fill="none" stroke="#1b1b1b" stroke-width="2" opacity=".4"/><rect x="48" y="56" width="154" height="238" rx="8" fill="none" stroke="#c9a24a" stroke-width="1.5" opacity=".7"/><g transform="translate(125.0,92.0) scale(1.8)" fill="#1b1b1b"><path d="M0 -8 C 1 -5 9 -1.5 9 4 C 9 9 2.5 10 0 5 C -2.5 10 -9 9 -9 4 C -9 -1.5 -1 -5 0 -8 Z M -3.4 9.6 C -1.3 6.6 -0.6 5 0 3.1 C 0.6 5 1.3 6.6 3.4 9.6 Z"/></g><g transform="translate(125.0,258.0) scale(1.8) rotate(180)" fill="#1b1b1b"><path d="M0 -8 C 1 -5 9 -1.5 9 4 C 9 9 2.5 10 0 5 C -2.5 10 -9 9 -9 4 C -9 -1.5 -1 -5 0 -8 Z M -3.4 9.6 C -1.3 6.6 -0.6 5 0 3.1 C 0.6 5 1.3 6.6 3.4 9.6 Z"/></g><text x="125" y="206" text-anchor="middle" font-family="Georgia, serif" font-weight="700" font-size="120" fill="#1b1b1b">Q</text></symbol><symbol id="card-KS" viewBox="0 0 250 350"><rect x="3" y="3" width="244" height="344" rx="18" fill="#ffffff" stroke="#d6d6d6" stroke-width="2"/><g transform="translate(31,42)"><text x="0" y="0" text-anchor="middle" font-family="Arial, sans-serif" font-weight="700" font-size="36" fill="#1b1b1b">K</text><g transform="translate(0,21) scale(0.8)" fill="#1b1b1b"><path d="M0 -8 C 1 -5 9 -1.5 9 4 C 9 9 2.5 10 0 5 C -2.5 10 -9 9 -9 4 C -9 -1.5 -1 -5 0 -8 Z M -3.4 9.6 C -1.3 6.6 -0.6 5 0 3.1 C 0.6 5 1.3 6.6 3.4 9.6 Z"/></g></g><g transform="translate(219,308) rotate(180)"><text x="0" y="0" text-anchor="middle" font-family="Arial, sans-serif" font-weight="700" font-size="36" fill="#1b1b1b">K</text><g transform="translate(0,21) scale(0.8)" fill="#1b1b1b"><path d="M0 -8 C 1 -5 9 -1.5 9 4 C 9 9 2.5 10 0 5 C -2.5 10 -9 9 -9 4 C -9 -1.5 -1 -5 0 -8 Z M -3.4 9.6 C -1.3 6.6 -0.6 5 0 3.1 C 0.6 5 1.3 6.6 3.4 9.6 Z"/></g></g><rect x="42" y="50" width="166" height="250" rx="10" fill="none" stroke="#1b1b1b" stroke-width="2" opacity=".4"/><rect x="48" y="56" width="154" height="238" rx="8" fill="none" stroke="#c9a24a" stroke-width="1.5" opacity=".7"/><g transform="translate(125.0,92.0) scale(1.8)" fill="#1b1b1b"><path d="M0 -8 C 1 -5 9 -1.5 9 4 C 9 9 2.5 10 0 5 C -2.5 10 -9 9 -9 4 C -9 -1.5 -1 -5 0 -8 Z M -3.4 9.6 C -1.3 6.6 -0.6 5 0 3.1 C 0.6 5 1.3 6.6 3.4 9.6 Z"/></g><g transform="translate(125.0,258.0) scale(1.8) rotate(180)" fill="#1b1b1b"><path d="M0 -8 C 1 -5 9 -1.5 9 4 C 9 9 2.5 10 0 5 C -2.5 10 -9 9 -9 4 C -9 -1.5 -1 -5 0 -8 Z M -3.4 9.6 C -1.3 6.6 -0.6 5 0 3.1 C 0.6 5 1.3 6.6 3.4 9.6 Z"/></g><text x="125" y="206" text-anchor="middle" font-family="Georgia, serif" font-weight="700" font-size="120" fill="#1b1b1b">K</text></symbol><symbol id="card-AH" viewBox="0 0 250 350"><rect x="3" y="3" width="244" height="344" rx="18" fill="#ffffff" stroke="#d6d6d6" stroke-width="2"/><g transform="translate(31,42)"><text x="0" y="0" text-anchor="middle" font-family="Arial, sans-serif" font-weight="700" font-size="36" fill="#cf1f2d">A</text><g transform="translate(0,21) scale(0.8)" fill="#cf1f2d"><path d="M0 8 C -1 5 -9 1.5 -9 -4 C -9 -9 -2.5 -10 0 -5 C 2.5 -10 9 -9 9 -4 C 9 1.5 1 5 0 8 Z"/></g></g><g transform="translate(219,308) rotate(180)"><text x="0" y="0" text-anchor="middle" font-family="Arial, sans-serif" font-weight="700" font-size="36" fill="#cf1f2d">A</text><g transform="translate(0,21) scale(0.8)" fill="#cf1f2d"><path d="M0 8 C -1 5 -9 1.5 -9 -4 C -9 -9 -2.5 -10 0 -5 C 2.5 -10 9 -9 9 -4 C 9 1.5 1 5 0 8 Z"/></g></g><g transform="translate(125.0,175.0) scale(3.6)" fill="#cf1f2d"><path d="M0 8 C -1 5 -9 1.5 -9 -4 C -9 -9 -2.5 -10 0 -5 C 2.5 -10 9 -9 9 -4 C 9 1.5 1 5 0 8 Z"/></g></symbol><symbol id="card-2H" viewBox="0 0 250 350"><rect x="3" y="3" width="244" height="344" rx="18" fill="#ffffff" stroke="#d6d6d6" stroke-width="2"/><g transform="translate(31,42)"><text x="0" y="0" text-anchor="middle" font-family="Arial, sans-serif" font-weight="700" font-size="36" fill="#cf1f2d">2</text><g transform="translate(0,21) scale(0.8)" fill="#cf1f2d"><path d="M0 8 C -1 5 -9 1.5 -9 -4 C -9 -9 -2.5 -10 0 -5 C 2.5 -10 9 -9 9 -4 C 9 1.5 1 5 0 8 Z"/></g></g><g transform="translate(219,308) rotate(180)"><text x="0" y="0" text-anchor="middle" font-family="Arial, sans-serif" font-weight="700" font-size="36" fill="#cf1f2d">2</text><g transform="translate(0,21) scale(0.8)" fill="#cf1f2d"><path d="M0 8 C -1 5 -9 1.5 -9 -4 C -9 -9 -2.5 -10 0 -5 C 2.5 -10 9 -9 9 -4 C 9 1.5 1 5 0 8 Z"/></g></g><g transform="translate(125.0,74.0) scale(1.6)" fill="#cf1f2d"><path d="M0 8 C -1 5 -9 1.5 -9 -4 C -9 -9 -2.5 -10 0 -5 C 2.5 -10 9 -9 9 -4 C 9 1.5 1 5 0 8 Z"/></g><g transform="translate(125.0,276.0) scale(1.6) rotate(180)" fill="#cf1f2d"><path d="M0 8 C -1 5 -9 1.5 -9 -4 C -9 -9 -2.5 -10 0 -5 C 2.5 -10 9 -9 9 -4 C 9 1.5 1 5 0 8 Z"/></g></symbol><symbol id="card-3H" viewBox="0 0 250 350"><rect x="3" y="3" width="244" height="344" rx="18" fill="#ffffff" stroke="#d6d6d6" stroke-width="2"/><g transform="translate(31,42)"><text x="0" y="0" text-anchor="middle" font-family="Arial, sans-serif" font-weight="700" font-size="36" fill="#cf1f2d">3</text><g transform="translate(0,21) scale(0.8)" fill="#cf1f2d"><path d="M0 8 C -1 5 -9 1.5 -9 -4 C -9 -9 -2.5 -10 0 -5 C 2.5 -10 9 -9 9 -4 C 9 1.5 1 5 0 8 Z"/></g></g><g transform="translate(219,308) rotate(180)"><text x="0" y="0" text-anchor="middle" font-family="Arial, sans-serif" font-weight="700" font-size="36" fill="#cf1f2d">3</text><g transform="translate(0,21) scale(0.8)" fill="#cf1f2d"><path d="M0 8 C -1 5 -9 1.5 -9 -4 C -9 -9 -2.5 -10 0 -5 C 2.5 -10 9 -9 9 -4 C 9 1.5 1 5 0 8 Z"/></g></g><g transform="translate(125.0,74.0) scale(1.6)" fill="#cf1f2d"><path d="M0 8 C -1 5 -9 1.5 -9 -4 C -9 -9 -2.5 -10 0 -5 C 2.5 -10 9 -9 9 -4 C 9 1.5 1 5 0 8 Z"/></g><g transform="translate(125.0,175.0) scale(1.6)" fill="#cf1f2d"><path d="M0 8 C -1 5 -9 1.5 -9 -4 C -9 -9 -2.5 -10 0 -5 C 2.5 -10 9 -9 9 -4 C 9 1.5 1 5 0 8 Z"/></g><g transform="translate(125.0,276.0) scale(1.6) rotate(180)" fill="#cf1f2d"><path d="M0 8 C -1 5 -9 1.5 -9 -4 C -9 -9 -2.5 -10 0 -5 C 2.5 -10 9 -9 9 -4 C 9 1.5 1 5 0 8 Z"/></g></symbol><symbol id="card-4H" viewBox="0 0 250 350"><rect x="3" y="3" width="244" height="344" rx="18" fill="#ffffff" stroke="#d6d6d6" stroke-width="2"/><g transform="translate(31,42)"><text x="0" y="0" text-anchor="middle" font-family="Arial, sans-serif" font-weight="700" font-size="36" fill="#cf1f2d">4</text><g transform="translate(0,21) scale(0.8)" fill="#cf1f2d"><path d="M0 8 C -1 5 -9 1.5 -9 -4 C -9 -9 -2.5 -10 0 -5 C 2.5 -10 9 -9 9 -4 C 9 1.5 1 5 0 8 Z"/></g></g><g transform="translate(219,308) rotate(180)"><text x="0" y="0" text-anchor="middle" font-family="Arial, sans-serif" font-weight="700" font-size="36" fill="#cf1f2d">4</text><g transform="translate(0,21) scale(0.8)" fill="#cf1f2d"><path d="M0 8 C -1 5 -9 1.5 -9 -4 C -9 -9 -2.5 -10 0 -5 C 2.5 -10 9 -9 9 -4 C 9 1.5 1 5 0 8 Z"/></g></g><g transform="translate(84.0,74.0) scale(1.6)" fill="#cf1f2d"><path d="M0 8 C -1 5 -9 1.5 -9 -4 C -9 -9 -2.5 -10 0 -5 C 2.5 -10 9 -9 9 -4 C 9 1.5 1 5 0 8 Z"/></g><g transform="translate(166.0,74.0) scale(1.6)" fill="#cf1f2d"><path d="M0 8 C -1 5 -9 1.5 -9 -4 C -9 -9 -2.5 -10 0 -5 C 2.5 -10 9 -9 9 -4 C 9 1.5 1 5 0 8 Z"/></g><g transform="translate(84.0,276.0) scale(1.6) rotate(180)" fill="#cf1f2d"><path d="M0 8 C -1 5 -9 1.5 -9 -4 C -9 -9 -2.5 -10 0 -5 C 2.5 -10 9 -9 9 -4 C 9 1.5 1 5 0 8 Z"/></g><g transform="translate(166.0,276.0) scale(1.6) rotate(180)" fill="#cf1f2d"><path d="M0 8 C -1 5 -9 1.5 -9 -4 C -9 -9 -2.5 -10 0 -5 C 2.5 -10 9 -9 9 -4 C 9 1.5 1 5 0 8 Z"/></g></symbol><symbol id="card-5H" viewBox="0 0 250 350"><rect x="3" y="3" width="244" height="344" rx="18" fill="#ffffff" stroke="#d6d6d6" stroke-width="2"/><g transform="translate(31,42)"><text x="0" y="0" text-anchor="middle" font-family="Arial, sans-serif" font-weight="700" font-size="36" fill="#cf1f2d">5</text><g transform="translate(0,21) scale(0.8)" fill="#cf1f2d"><path d="M0 8 C -1 5 -9 1.5 -9 -4 C -9 -9 -2.5 -10 0 -5 C 2.5 -10 9 -9 9 -4 C 9 1.5 1 5 0 8 Z"/></g></g><g transform="translate(219,308) rotate(180)"><text x="0" y="0" text-anchor="middle" font-family="Arial, sans-serif" font-weight="700" font-size="36" fill="#cf1f2d">5</text><g transform="translate(0,21) scale(0.8)" fill="#cf1f2d"><path d="M0 8 C -1 5 -9 1.5 -9 -4 C -9 -9 -2.5 -10 0 -5 C 2.5 -10 9 -9 9 -4 C 9 1.5 1 5 0 8 Z"/></g></g><g transform="translate(84.0,74.0) scale(1.6)" fill="#cf1f2d"><path d="M0 8 C -1 5 -9 1.5 -9 -4 C -9 -9 -2.5 -10 0 -5 C 2.5 -10 9 -9 9 -4 C 9 1.5 1 5 0 8 Z"/></g><g transform="translate(166.0,74.0) scale(1.6)" fill="#cf1f2d"><path d="M0 8 C -1 5 -9 1.5 -9 -4 C -9 -9 -2.5 -10 0 -5 C 2.5 -10 9 -9 9 -4 C 9 1.5 1 5 0 8 Z"/></g><g transform="translate(125.0,175.0) scale(1.6)" fill="#cf1f2d"><path d="M0 8 C -1 5 -9 1.5 -9 -4 C -9 -9 -2.5 -10 0 -5 C 2.5 -10 9 -9 9 -4 C 9 1.5 1 5 0 8 Z"/></g><g transform="translate(84.0,276.0) scale(1.6) rotate(180)" fill="#cf1f2d"><path d="M0 8 C -1 5 -9 1.5 -9 -4 C -9 -9 -2.5 -10 0 -5 C 2.5 -10 9 -9 9 -4 C 9 1.5 1 5 0 8 Z"/></g><g transform="translate(166.0,276.0) scale(1.6) rotate(180)" fill="#cf1f2d"><path d="M0 8 C -1 5 -9 1.5 -9 -4 C -9 -9 -2.5 -10 0 -5 C 2.5 -10 9 -9 9 -4 C 9 1.5 1 5 0 8 Z"/></g></symbol><symbol id="card-6H" viewBox="0 0 250 350"><rect x="3" y="3" width="244" height="344" rx="18" fill="#ffffff" stroke="#d6d6d6" stroke-width="2"/><g transform="translate(31,42)"><text x="0" y="0" text-anchor="middle" font-family="Arial, sans-serif" font-weight="700" font-size="36" fill="#cf1f2d">6</text><g transform="translate(0,21) scale(0.8)" fill="#cf1f2d"><path d="M0 8 C -1 5 -9 1.5 -9 -4 C -9 -9 -2.5 -10 0 -5 C 2.5 -10 9 -9 9 -4 C 9 1.5 1 5 0 8 Z"/></g></g><g transform="translate(219,308) rotate(180)"><text x="0" y="0" text-anchor="middle" font-family="Arial, sans-serif" font-weight="700" font-size="36" fill="#cf1f2d">6</text><g transform="translate(0,21) scale(0.8)" fill="#cf1f2d"><path d="M0 8 C -1 5 -9 1.5 -9 -4 C -9 -9 -2.5 -10 0 -5 C 2.5 -10 9 -9 9 -4 C 9 1.5 1 5 0 8 Z"/></g></g><g transform="translate(84.0,74.0) scale(1.6)" fill="#cf1f2d"><path d="M0 8 C -1 5 -9 1.5 -9 -4 C -9 -9 -2.5 -10 0 -5 C 2.5 -10 9 -9 9 -4 C 9 1.5 1 5 0 8 Z"/></g><g transform="translate(166.0,74.0) scale(1.6)" fill="#cf1f2d"><path d="M0 8 C -1 5 -9 1.5 -9 -4 C -9 -9 -2.5 -10 0 -5 C 2.5 -10 9 -9 9 -4 C 9 1.5 1 5 0 8 Z"/></g><g transform="translate(84.0,175.0) scale(1.6)" fill="#cf1f2d"><path d="M0 8 C -1 5 -9 1.5 -9 -4 C -9 -9 -2.5 -10 0 -5 C 2.5 -10 9 -9 9 -4 C 9 1.5 1 5 0 8 Z"/></g><g transform="translate(166.0,175.0) scale(1.6)" fill="#cf1f2d"><path d="M0 8 C -1 5 -9 1.5 -9 -4 C -9 -9 -2.5 -10 0 -5 C 2.5 -10 9 -9 9 -4 C 9 1.5 1 5 0 8 Z"/></g><g transform="translate(84.0,276.0) scale(1.6) rotate(180)" fill="#cf1f2d"><path d="M0 8 C -1 5 -9 1.5 -9 -4 C -9 -9 -2.5 -10 0 -5 C 2.5 -10 9 -9 9 -4 C 9 1.5 1 5 0 8 Z"/></g><g transform="translate(166.0,276.0) scale(1.6) rotate(180)" fill="#cf1f2d"><path d="M0 8 C -1 5 -9 1.5 -9 -4 C -9 -9 -2.5 -10 0 -5 C 2.5 -10 9 -9 9 -4 C 9 1.5 1 5 0 8 Z"/></g></symbol><symbol id="card-7H" viewBox="0 0 250 350"><rect x="3" y="3" width="244" height="344" rx="18" fill="#ffffff" stroke="#d6d6d6" stroke-width="2"/><g transform="translate(31,42)"><text x="0" y="0" text-anchor="middle" font-family="Arial, sans-serif" font-weight="700" font-size="36" fill="#cf1f2d">7</text><g transform="translate(0,21) scale(0.8)" fill="#cf1f2d"><path d="M0 8 C -1 5 -9 1.5 -9 -4 C -9 -9 -2.5 -10 0 -5 C 2.5 -10 9 -9 9 -4 C 9 1.5 1 5 0 8 Z"/></g></g><g transform="translate(219,308) rotate(180)"><text x="0" y="0" text-anchor="middle" font-family="Arial, sans-serif" font-weight="700" font-size="36" fill="#cf1f2d">7</text><g transform="translate(0,21) scale(0.8)" fill="#cf1f2d"><path d="M0 8 C -1 5 -9 1.5 -9 -4 C -9 -9 -2.5 -10 0 -5 C 2.5 -10 9 -9 9 -4 C 9 1.5 1 5 0 8 Z"/></g></g><g transform="translate(84.0,74.0) scale(1.6)" fill="#cf1f2d"><path d="M0 8 C -1 5 -9 1.5 -9 -4 C -9 -9 -2.5 -10 0 -5 C 2.5 -10 9 -9 9 -4 C 9 1.5 1 5 0 8 Z"/></g><g transform="translate(166.0,74.0) scale(1.6)" fill="#cf1f2d"><path d="M0 8 C -1 5 -9 1.5 -9 -4 C -9 -9 -2.5 -10 0 -5 C 2.5 -10 9 -9 9 -4 C 9 1.5 1 5 0 8 Z"/></g><g transform="translate(125.0,124.5) scale(1.6)" fill="#cf1f2d"><path d="M0 8 C -1 5 -9 1.5 -9 -4 C -9 -9 -2.5 -10 0 -5 C 2.5 -10 9 -9 9 -4 C 9 1.5 1 5 0 8 Z"/></g><g transform="translate(84.0,175.0) scale(1.6)" fill="#cf1f2d"><path d="M0 8 C -1 5 -9 1.5 -9 -4 C -9 -9 -2.5 -10 0 -5 C 2.5 -10 9 -9 9 -4 C 9 1.5 1 5 0 8 Z"/></g><g transform="translate(166.0,175.0) scale(1.6)" fill="#cf1f2d"><path d="M0 8 C -1 5 -9 1.5 -9 -4 C -9 -9 -2.5 -10 0 -5 C 2.5 -10 9 -9 9 -4 C 9 1.5 1 5 0 8 Z"/></g><g transform="translate(84.0,276.0) scale(1.6) rotate(180)" fill="#cf1f2d"><path d="M0 8 C -1 5 -9 1.5 -9 -4 C -9 -9 -2.5 -10 0 -5 C 2.5 -10 9 -9 9 -4 C 9 1.5 1 5 0 8 Z"/></g><g transform="translate(166.0,276.0) scale(1.6) rotate(180)" fill="#cf1f2d"><path d="M0 8 C -1 5 -9 1.5 -9 -4 C -9 -9 -2.5 -10 0 -5 C 2.5 -10 9 -9 9 -4 C 9 1.5 1 5 0 8 Z"/></g></symbol><symbol id="card-8H" viewBox="0 0 250 350"><rect x="3" y="3" width="244" height="344" rx="18" fill="#ffffff" stroke="#d6d6d6" stroke-width="2"/><g transform="translate(31,42)"><text x="0" y="0" text-anchor="middle" font-family="Arial, sans-serif" font-weight="700" font-size="36" fill="#cf1f2d">8</text><g transform="translate(0,21) scale(0.8)" fill="#cf1f2d"><path d="M0 8 C -1 5 -9 1.5 -9 -4 C -9 -9 -2.5 -10 0 -5 C 2.5 -10 9 -9 9 -4 C 9 1.5 1 5 0 8 Z"/></g></g><g transform="translate(219,308) rotate(180)"><text x="0" y="0" text-anchor="middle" font-family="Arial, sans-serif" font-weight="700" font-size="36" fill="#cf1f2d">8</text><g transform="translate(0,21) scale(0.8)" fill="#cf1f2d"><path d="M0 8 C -1 5 -9 1.5 -9 -4 C -9 -9 -2.5 -10 0 -5 C 2.5 -10 9 -9 9 -4 C 9 1.5 1 5 0 8 Z"/></g></g><g transform="translate(84.0,74.0) scale(1.6)" fill="#cf1f2d"><path d="M0 8 C -1 5 -9 1.5 -9 -4 C -9 -9 -2.5 -10 0 -5 C 2.5 -10 9 -9 9 -4 C 9 1.5 1 5 0 8 Z"/></g><g transform="translate(166.0,74.0) scale(1.6)" fill="#cf1f2d"><path d="M0 8 C -1 5 -9 1.5 -9 -4 C -9 -9 -2.5 -10 0 -5 C 2.5 -10 9 -9 9 -4 C 9 1.5 1 5 0 8 Z"/></g><g transform="translate(125.0,124.5) scale(1.6)" fill="#cf1f2d"><path d="M0 8 C -1 5 -9 1.5 -9 -4 C -9 -9 -2.5 -10 0 -5 C 2.5 -10 9 -9 9 -4 C 9 1.5 1 5 0 8 Z"/></g><g transform="translate(84.0,175.0) scale(1.6)" fill="#cf1f2d"><path d="M0 8 C -1 5 -9 1.5 -9 -4 C -9 -9 -2.5 -10 0 -5 C 2.5 -10 9 -9 9 -4 C 9 1.5 1 5 0 8 Z"/></g><g transform="translate(166.0,175.0) scale(1.6)" fill="#cf1f2d"><path d="M0 8 C -1 5 -9 1.5 -9 -4 C -9 -9 -2.5 -10 0 -5 C 2.5 -10 9 -9 9 -4 C 9 1.5 1 5 0 8 Z"/></g><g transform="translate(125.0,225.5) scale(1.6) rotate(180)" fill="#cf1f2d"><path d="M0 8 C -1 5 -9 1.5 -9 -4 C -9 -9 -2.5 -10 0 -5 C 2.5 -10 9 -9 9 -4 C 9 1.5 1 5 0 8 Z"/></g><g transform="translate(84.0,276.0) scale(1.6) rotate(180)" fill="#cf1f2d"><path d="M0 8 C -1 5 -9 1.5 -9 -4 C -9 -9 -2.5 -10 0 -5 C 2.5 -10 9 -9 9 -4 C 9 1.5 1 5 0 8 Z"/></g><g transform="translate(166.0,276.0) scale(1.6) rotate(180)" fill="#cf1f2d"><path d="M0 8 C -1 5 -9 1.5 -9 -4 C -9 -9 -2.5 -10 0 -5 C 2.5 -10 9 -9 9 -4 C 9 1.5 1 5 0 8 Z"/></g></symbol><symbol id="card-9H" viewBox="0 0 250 350"><rect x="3" y="3" width="244" height="344" rx="18" fill="#ffffff" stroke="#d6d6d6" stroke-width="2"/><g transform="translate(31,42)"><text x="0" y="0" text-anchor="middle" font-family="Arial, sans-serif" font-weight="700" font-size="36" fill="#cf1f2d">9</text><g transform="translate(0,21) scale(0.8)" fill="#cf1f2d"><path d="M0 8 C -1 5 -9 1.5 -9 -4 C -9 -9 -2.5 -10 0 -5 C 2.5 -10 9 -9 9 -4 C 9 1.5 1 5 0 8 Z"/></g></g><g transform="translate(219,308) rotate(180)"><text x="0" y="0" text-anchor="middle" font-family="Arial, sans-serif" font-weight="700" font-size="36" fill="#cf1f2d">9</text><g transform="translate(0,21) scale(0.8)" fill="#cf1f2d"><path d="M0 8 C -1 5 -9 1.5 -9 -4 C -9 -9 -2.5 -10 0 -5 C 2.5 -10 9 -9 9 -4 C 9 1.5 1 5 0 8 Z"/></g></g><g transform="translate(84.0,74.0) scale(1.6)" fill="#cf1f2d"><path d="M0 8 C -1 5 -9 1.5 -9 -4 C -9 -9 -2.5 -10 0 -5 C 2.5 -10 9 -9 9 -4 C 9 1.5 1 5 0 8 Z"/></g><g transform="translate(166.0,74.0) scale(1.6)" fill="#cf1f2d"><path d="M0 8 C -1 5 -9 1.5 -9 -4 C -9 -9 -2.5 -10 0 -5 C 2.5 -10 9 -9 9 -4 C 9 1.5 1 5 0 8 Z"/></g><g transform="translate(84.0,141.3) scale(1.6)" fill="#cf1f2d"><path d="M0 8 C -1 5 -9 1.5 -9 -4 C -9 -9 -2.5 -10 0 -5 C 2.5 -10 9 -9 9 -4 C 9 1.5 1 5 0 8 Z"/></g><g transform="translate(166.0,141.3) scale(1.6)" fill="#cf1f2d"><path d="M0 8 C -1 5 -9 1.5 -9 -4 C -9 -9 -2.5 -10 0 -5 C 2.5 -10 9 -9 9 -4 C 9 1.5 1 5 0 8 Z"/></g><g transform="translate(125.0,175.0) scale(1.6)" fill="#cf1f2d"><path d="M0 8 C -1 5 -9 1.5 -9 -4 C -9 -9 -2.5 -10 0 -5 C 2.5 -10 9 -9 9 -4 C 9 1.5 1 5 0 8 Z"/></g><g transform="translate(84.0,208.7) scale(1.6) rotate(180)" fill="#cf1f2d"><path d="M0 8 C -1 5 -9 1.5 -9 -4 C -9 -9 -2.5 -10 0 -5 C 2.5 -10 9 -9 9 -4 C 9 1.5 1 5 0 8 Z"/></g><g transform="translate(166.0,208.7) scale(1.6) rotate(180)" fill="#cf1f2d"><path d="M0 8 C -1 5 -9 1.5 -9 -4 C -9 -9 -2.5 -10 0 -5 C 2.5 -10 9 -9 9 -4 C 9 1.5 1 5 0 8 Z"/></g><g transform="translate(84.0,276.0) scale(1.6) rotate(180)" fill="#cf1f2d"><path d="M0 8 C -1 5 -9 1.5 -9 -4 C -9 -9 -2.5 -10 0 -5 C 2.5 -10 9 -9 9 -4 C 9 1.5 1 5 0 8 Z"/></g><g transform="translate(166.0,276.0) scale(1.6) rotate(180)" fill="#cf1f2d"><path d="M0 8 C -1 5 -9 1.5 -9 -4 C -9 -9 -2.5 -10 0 -5 C 2.5 -10 9 -9 9 -4 C 9 1.5 1 5 0 8 Z"/></g></symbol><symbol id="card-10H" viewBox="0 0 250 350"><rect x="3" y="3" width="244" height="344" rx="18" fill="#ffffff" stroke="#d6d6d6" stroke-width="2"/><g transform="translate(31,42)"><text x="0" y="0" text-anchor="middle" font-family="Arial, sans-serif" font-weight="700" font-size="30" fill="#cf1f2d">10</text><g transform="translate(0,21) scale(0.8)" fill="#cf1f2d"><path d="M0 8 C -1 5 -9 1.5 -9 -4 C -9 -9 -2.5 -10 0 -5 C 2.5 -10 9 -9 9 -4 C 9 1.5 1 5 0 8 Z"/></g></g><g transform="translate(219,308) rotate(180)"><text x="0" y="0" text-anchor="middle" font-family="Arial, sans-serif" font-weight="700" font-size="30" fill="#cf1f2d">10</text><g transform="translate(0,21) scale(0.8)" fill="#cf1f2d"><path d="M0 8 C -1 5 -9 1.5 -9 -4 C -9 -9 -2.5 -10 0 -5 C 2.5 -10 9 -9 9 -4 C 9 1.5 1 5 0 8 Z"/></g></g><g transform="translate(84.0,74.0) scale(1.6)" fill="#cf1f2d"><path d="M0 8 C -1 5 -9 1.5 -9 -4 C -9 -9 -2.5 -10 0 -5 C 2.5 -10 9 -9 9 -4 C 9 1.5 1 5 0 8 Z"/></g><g transform="translate(166.0,74.0) scale(1.6)" fill="#cf1f2d"><path d="M0 8 C -1 5 -9 1.5 -9 -4 C -9 -9 -2.5 -10 0 -5 C 2.5 -10 9 -9 9 -4 C 9 1.5 1 5 0 8 Z"/></g><g transform="translate(125.0,107.7) scale(1.6)" fill="#cf1f2d"><path d="M0 8 C -1 5 -9 1.5 -9 -4 C -9 -9 -2.5 -10 0 -5 C 2.5 -10 9 -9 9 -4 C 9 1.5 1 5 0 8 Z"/></g><g transform="translate(84.0,141.3) scale(1.6)" fill="#cf1f2d"><path d="M0 8 C -1 5 -9 1.5 -9 -4 C -9 -9 -2.5 -10 0 -5 C 2.5 -10 9 -9 9 -4 C 9 1.5 1 5 0 8 Z"/></g><g transform="translate(166.0,141.3) scale(1.6)" fill="#cf1f2d"><path d="M0 8 C -1 5 -9 1.5 -9 -4 C -9 -9 -2.5 -10 0 -5 C 2.5 -10 9 -9 9 -4 C 9 1.5 1 5 0 8 Z"/></g><g transform="translate(84.0,208.7) scale(1.6) rotate(180)" fill="#cf1f2d"><path d="M0 8 C -1 5 -9 1.5 -9 -4 C -9 -9 -2.5 -10 0 -5 C 2.5 -10 9 -9 9 -4 C 9 1.5 1 5 0 8 Z"/></g><g transform="translate(166.0,208.7) scale(1.6) rotate(180)" fill="#cf1f2d"><path d="M0 8 C -1 5 -9 1.5 -9 -4 C -9 -9 -2.5 -10 0 -5 C 2.5 -10 9 -9 9 -4 C 9 1.5 1 5 0 8 Z"/></g><g transform="translate(125.0,242.3) scale(1.6) rotate(180)" fill="#cf1f2d"><path d="M0 8 C -1 5 -9 1.5 -9 -4 C -9 -9 -2.5 -10 0 -5 C 2.5 -10 9 -9 9 -4 C 9 1.5 1 5 0 8 Z"/></g><g transform="translate(84.0,276.0) scale(1.6) rotate(180)" fill="#cf1f2d"><path d="M0 8 C -1 5 -9 1.5 -9 -4 C -9 -9 -2.5 -10 0 -5 C 2.5 -10 9 -9 9 -4 C 9 1.5 1 5 0 8 Z"/></g><g transform="translate(166.0,276.0) scale(1.6) rotate(180)" fill="#cf1f2d"><path d="M0 8 C -1 5 -9 1.5 -9 -4 C -9 -9 -2.5 -10 0 -5 C 2.5 -10 9 -9 9 -4 C 9 1.5 1 5 0 8 Z"/></g></symbol><symbol id="card-JH" viewBox="0 0 250 350"><rect x="3" y="3" width="244" height="344" rx="18" fill="#ffffff" stroke="#d6d6d6" stroke-width="2"/><g transform="translate(31,42)"><text x="0" y="0" text-anchor="middle" font-family="Arial, sans-serif" font-weight="700" font-size="36" fill="#cf1f2d">J</text><g transform="translate(0,21) scale(0.8)" fill="#cf1f2d"><path d="M0 8 C -1 5 -9 1.5 -9 -4 C -9 -9 -2.5 -10 0 -5 C 2.5 -10 9 -9 9 -4 C 9 1.5 1 5 0 8 Z"/></g></g><g transform="translate(219,308) rotate(180)"><text x="0" y="0" text-anchor="middle" font-family="Arial, sans-serif" font-weight="700" font-size="36" fill="#cf1f2d">J</text><g transform="translate(0,21) scale(0.8)" fill="#cf1f2d"><path d="M0 8 C -1 5 -9 1.5 -9 -4 C -9 -9 -2.5 -10 0 -5 C 2.5 -10 9 -9 9 -4 C 9 1.5 1 5 0 8 Z"/></g></g><rect x="42" y="50" width="166" height="250" rx="10" fill="none" stroke="#cf1f2d" stroke-width="2" opacity=".4"/><rect x="48" y="56" width="154" height="238" rx="8" fill="none" stroke="#c9a24a" stroke-width="1.5" opacity=".7"/><g transform="translate(125.0,92.0) scale(1.8)" fill="#cf1f2d"><path d="M0 8 C -1 5 -9 1.5 -9 -4 C -9 -9 -2.5 -10 0 -5 C 2.5 -10 9 -9 9 -4 C 9 1.5 1 5 0 8 Z"/></g><g transform="translate(125.0,258.0) scale(1.8) rotate(180)" fill="#cf1f2d"><path d="M0 8 C -1 5 -9 1.5 -9 -4 C -9 -9 -2.5 -10 0 -5 C 2.5 -10 9 -9 9 -4 C 9 1.5 1 5 0 8 Z"/></g><text x="125" y="206" text-anchor="middle" font-family="Georgia, serif" font-weight="700" font-size="120" fill="#cf1f2d">J</text></symbol><symbol id="card-QH" viewBox="0 0 250 350"><rect x="3" y="3" width="244" height="344" rx="18" fill="#ffffff" stroke="#d6d6d6" stroke-width="2"/><g transform="translate(31,42)"><text x="0" y="0" text-anchor="middle" font-family="Arial, sans-serif" font-weight="700" font-size="36" fill="#cf1f2d">Q</text><g transform="translate(0,21) scale(0.8)" fill="#cf1f2d"><path d="M0 8 C -1 5 -9 1.5 -9 -4 C -9 -9 -2.5 -10 0 -5 C 2.5 -10 9 -9 9 -4 C 9 1.5 1 5 0 8 Z"/></g></g><g transform="translate(219,308) rotate(180)"><text x="0" y="0" text-anchor="middle" font-family="Arial, sans-serif" font-weight="700" font-size="36" fill="#cf1f2d">Q</text><g transform="translate(0,21) scale(0.8)" fill="#cf1f2d"><path d="M0 8 C -1 5 -9 1.5 -9 -4 C -9 -9 -2.5 -10 0 -5 C 2.5 -10 9 -9 9 -4 C 9 1.5 1 5 0 8 Z"/></g></g><rect x="42" y="50" width="166" height="250" rx="10" fill="none" stroke="#cf1f2d" stroke-width="2" opacity=".4"/><rect x="48" y="56" width="154" height="238" rx="8" fill="none" stroke="#c9a24a" stroke-width="1.5" opacity=".7"/><g transform="translate(125.0,92.0) scale(1.8)" fill="#cf1f2d"><path d="M0 8 C -1 5 -9 1.5 -9 -4 C -9 -9 -2.5 -10 0 -5 C 2.5 -10 9 -9 9 -4 C 9 1.5 1 5 0 8 Z"/></g><g transform="translate(125.0,258.0) scale(1.8) rotate(180)" fill="#cf1f2d"><path d="M0 8 C -1 5 -9 1.5 -9 -4 C -9 -9 -2.5 -10 0 -5 C 2.5 -10 9 -9 9 -4 C 9 1.5 1 5 0 8 Z"/></g><text x="125" y="206" text-anchor="middle" font-family="Georgia, serif" font-weight="700" font-size="120" fill="#cf1f2d">Q</text></symbol><symbol id="card-KH" viewBox="0 0 250 350"><rect x="3" y="3" width="244" height="344" rx="18" fill="#ffffff" stroke="#d6d6d6" stroke-width="2"/><g transform="translate(31,42)"><text x="0" y="0" text-anchor="middle" font-family="Arial, sans-serif" font-weight="700" font-size="36" fill="#cf1f2d">K</text><g transform="translate(0,21) scale(0.8)" fill="#cf1f2d"><path d="M0 8 C -1 5 -9 1.5 -9 -4 C -9 -9 -2.5 -10 0 -5 C 2.5 -10 9 -9 9 -4 C 9 1.5 1 5 0 8 Z"/></g></g><g transform="translate(219,308) rotate(180)"><text x="0" y="0" text-anchor="middle" font-family="Arial, sans-serif" font-weight="700" font-size="36" fill="#cf1f2d">K</text><g transform="translate(0,21) scale(0.8)" fill="#cf1f2d"><path d="M0 8 C -1 5 -9 1.5 -9 -4 C -9 -9 -2.5 -10 0 -5 C 2.5 -10 9 -9 9 -4 C 9 1.5 1 5 0 8 Z"/></g></g><rect x="42" y="50" width="166" height="250" rx="10" fill="none" stroke="#cf1f2d" stroke-width="2" opacity=".4"/><rect x="48" y="56" width="154" height="238" rx="8" fill="none" stroke="#c9a24a" stroke-width="1.5" opacity=".7"/><g transform="translate(125.0,92.0) scale(1.8)" fill="#cf1f2d"><path d="M0 8 C -1 5 -9 1.5 -9 -4 C -9 -9 -2.5 -10 0 -5 C 2.5 -10 9 -9 9 -4 C 9 1.5 1 5 0 8 Z"/></g><g transform="translate(125.0,258.0) scale(1.8) rotate(180)" fill="#cf1f2d"><path d="M0 8 C -1 5 -9 1.5 -9 -4 C -9 -9 -2.5 -10 0 -5 C 2.5 -10 9 -9 9 -4 C 9 1.5 1 5 0 8 Z"/></g><text x="125" y="206" text-anchor="middle" font-family="Georgia, serif" font-weight="700" font-size="120" fill="#cf1f2d">K</text></symbol><symbol id="card-AD" viewBox="0 0 250 350"><rect x="3" y="3" width="244" height="344" rx="18" fill="#ffffff" stroke="#d6d6d6" stroke-width="2"/><g transform="translate(31,42)"><text x="0" y="0" text-anchor="middle" font-family="Arial, sans-serif" font-weight="700" font-size="36" fill="#cf1f2d">A</text><g transform="translate(0,21) scale(0.8)" fill="#cf1f2d"><path d="M0 -9 L 7 0 L 0 9 L -7 0 Z"/></g></g><g transform="translate(219,308) rotate(180)"><text x="0" y="0" text-anchor="middle" font-family="Arial, sans-serif" font-weight="700" font-size="36" fill="#cf1f2d">A</text><g transform="translate(0,21) scale(0.8)" fill="#cf1f2d"><path d="M0 -9 L 7 0 L 0 9 L -7 0 Z"/></g></g><g transform="translate(125.0,175.0) scale(3.6)" fill="#cf1f2d"><path d="M0 -9 L 7 0 L 0 9 L -7 0 Z"/></g></symbol><symbol id="card-2D" viewBox="0 0 250 350"><rect x="3" y="3" width="244" height="344" rx="18" fill="#ffffff" stroke="#d6d6d6" stroke-width="2"/><g transform="translate(31,42)"><text x="0" y="0" text-anchor="middle" font-family="Arial, sans-serif" font-weight="700" font-size="36" fill="#cf1f2d">2</text><g transform="translate(0,21) scale(0.8)" fill="#cf1f2d"><path d="M0 -9 L 7 0 L 0 9 L -7 0 Z"/></g></g><g transform="translate(219,308) rotate(180)"><text x="0" y="0" text-anchor="middle" font-family="Arial, sans-serif" font-weight="700" font-size="36" fill="#cf1f2d">2</text><g transform="translate(0,21) scale(0.8)" fill="#cf1f2d"><path d="M0 -9 L 7 0 L 0 9 L -7 0 Z"/></g></g><g transform="translate(125.0,74.0) scale(1.6)" fill="#cf1f2d"><path d="M0 -9 L 7 0 L 0 9 L -7 0 Z"/></g><g transform="translate(125.0,276.0) scale(1.6) rotate(180)" fill="#cf1f2d"><path d="M0 -9 L 7 0 L 0 9 L -7 0 Z"/></g></symbol><symbol id="card-3D" viewBox="0 0 250 350"><rect x="3" y="3" width="244" height="344" rx="18" fill="#ffffff" stroke="#d6d6d6" stroke-width="2"/><g transform="translate(31,42)"><text x="0" y="0" text-anchor="middle" font-family="Arial, sans-serif" font-weight="700" font-size="36" fill="#cf1f2d">3</text><g transform="translate(0,21) scale(0.8)" fill="#cf1f2d"><path d="M0 -9 L 7 0 L 0 9 L -7 0 Z"/></g></g><g transform="translate(219,308) rotate(180)"><text x="0" y="0" text-anchor="middle" font-family="Arial, sans-serif" font-weight="700" font-size="36" fill="#cf1f2d">3</text><g transform="translate(0,21) scale(0.8)" fill="#cf1f2d"><path d="M0 -9 L 7 0 L 0 9 L -7 0 Z"/></g></g><g transform="translate(125.0,74.0) scale(1.6)" fill="#cf1f2d"><path d="M0 -9 L 7 0 L 0 9 L -7 0 Z"/></g><g transform="translate(125.0,175.0) scale(1.6)" fill="#cf1f2d"><path d="M0 -9 L 7 0 L 0 9 L -7 0 Z"/></g><g transform="translate(125.0,276.0) scale(1.6) rotate(180)" fill="#cf1f2d"><path d="M0 -9 L 7 0 L 0 9 L -7 0 Z"/></g></symbol><symbol id="card-4D" viewBox="0 0 250 350"><rect x="3" y="3" width="244" height="344" rx="18" fill="#ffffff" stroke="#d6d6d6" stroke-width="2"/><g transform="translate(31,42)"><text x="0" y="0" text-anchor="middle" font-family="Arial, sans-serif" font-weight="700" font-size="36" fill="#cf1f2d">4</text><g transform="translate(0,21) scale(0.8)" fill="#cf1f2d"><path d="M0 -9 L 7 0 L 0 9 L -7 0 Z"/></g></g><g transform="translate(219,308) rotate(180)"><text x="0" y="0" text-anchor="middle" font-family="Arial, sans-serif" font-weight="700" font-size="36" fill="#cf1f2d">4</text><g transform="translate(0,21) scale(0.8)" fill="#cf1f2d"><path d="M0 -9 L 7 0 L 0 9 L -7 0 Z"/></g></g><g transform="translate(84.0,74.0) scale(1.6)" fill="#cf1f2d"><path d="M0 -9 L 7 0 L 0 9 L -7 0 Z"/></g><g transform="translate(166.0,74.0) scale(1.6)" fill="#cf1f2d"><path d="M0 -9 L 7 0 L 0 9 L -7 0 Z"/></g><g transform="translate(84.0,276.0) scale(1.6) rotate(180)" fill="#cf1f2d"><path d="M0 -9 L 7 0 L 0 9 L -7 0 Z"/></g><g transform="translate(166.0,276.0) scale(1.6) rotate(180)" fill="#cf1f2d"><path d="M0 -9 L 7 0 L 0 9 L -7 0 Z"/></g></symbol><symbol id="card-5D" viewBox="0 0 250 350"><rect x="3" y="3" width="244" height="344" rx="18" fill="#ffffff" stroke="#d6d6d6" stroke-width="2"/><g transform="translate(31,42)"><text x="0" y="0" text-anchor="middle" font-family="Arial, sans-serif" font-weight="700" font-size="36" fill="#cf1f2d">5</text><g transform="translate(0,21) scale(0.8)" fill="#cf1f2d"><path d="M0 -9 L 7 0 L 0 9 L -7 0 Z"/></g></g><g transform="translate(219,308) rotate(180)"><text x="0" y="0" text-anchor="middle" font-family="Arial, sans-serif" font-weight="700" font-size="36" fill="#cf1f2d">5</text><g transform="translate(0,21) scale(0.8)" fill="#cf1f2d"><path d="M0 -9 L 7 0 L 0 9 L -7 0 Z"/></g></g><g transform="translate(84.0,74.0) scale(1.6)" fill="#cf1f2d"><path d="M0 -9 L 7 0 L 0 9 L -7 0 Z"/></g><g transform="translate(166.0,74.0) scale(1.6)" fill="#cf1f2d"><path d="M0 -9 L 7 0 L 0 9 L -7 0 Z"/></g><g transform="translate(125.0,175.0) scale(1.6)" fill="#cf1f2d"><path d="M0 -9 L 7 0 L 0 9 L -7 0 Z"/></g><g transform="translate(84.0,276.0) scale(1.6) rotate(180)" fill="#cf1f2d"><path d="M0 -9 L 7 0 L 0 9 L -7 0 Z"/></g><g transform="translate(166.0,276.0) scale(1.6) rotate(180)" fill="#cf1f2d"><path d="M0 -9 L 7 0 L 0 9 L -7 0 Z"/></g></symbol><symbol id="card-6D" viewBox="0 0 250 350"><rect x="3" y="3" width="244" height="344" rx="18" fill="#ffffff" stroke="#d6d6d6" stroke-width="2"/><g transform="translate(31,42)"><text x="0" y="0" text-anchor="middle" font-family="Arial, sans-serif" font-weight="700" font-size="36" fill="#cf1f2d">6</text><g transform="translate(0,21) scale(0.8)" fill="#cf1f2d"><path d="M0 -9 L 7 0 L 0 9 L -7 0 Z"/></g></g><g transform="translate(219,308) rotate(180)"><text x="0" y="0" text-anchor="middle" font-family="Arial, sans-serif" font-weight="700" font-size="36" fill="#cf1f2d">6</text><g transform="translate(0,21) scale(0.8)" fill="#cf1f2d"><path d="M0 -9 L 7 0 L 0 9 L -7 0 Z"/></g></g><g transform="translate(84.0,74.0) scale(1.6)" fill="#cf1f2d"><path d="M0 -9 L 7 0 L 0 9 L -7 0 Z"/></g><g transform="translate(166.0,74.0) scale(1.6)" fill="#cf1f2d"><path d="M0 -9 L 7 0 L 0 9 L -7 0 Z"/></g><g transform="translate(84.0,175.0) scale(1.6)" fill="#cf1f2d"><path d="M0 -9 L 7 0 L 0 9 L -7 0 Z"/></g><g transform="translate(166.0,175.0) scale(1.6)" fill="#cf1f2d"><path d="M0 -9 L 7 0 L 0 9 L -7 0 Z"/></g><g transform="translate(84.0,276.0) scale(1.6) rotate(180)" fill="#cf1f2d"><path d="M0 -9 L 7 0 L 0 9 L -7 0 Z"/></g><g transform="translate(166.0,276.0) scale(1.6) rotate(180)" fill="#cf1f2d"><path d="M0 -9 L 7 0 L 0 9 L -7 0 Z"/></g></symbol><symbol id="card-7D" viewBox="0 0 250 350"><rect x="3" y="3" width="244" height="344" rx="18" fill="#ffffff" stroke="#d6d6d6" stroke-width="2"/><g transform="translate(31,42)"><text x="0" y="0" text-anchor="middle" font-family="Arial, sans-serif" font-weight="700" font-size="36" fill="#cf1f2d">7</text><g transform="translate(0,21) scale(0.8)" fill="#cf1f2d"><path d="M0 -9 L 7 0 L 0 9 L -7 0 Z"/></g></g><g transform="translate(219,308) rotate(180)"><text x="0" y="0" text-anchor="middle" font-family="Arial, sans-serif" font-weight="700" font-size="36" fill="#cf1f2d">7</text><g transform="translate(0,21) scale(0.8)" fill="#cf1f2d"><path d="M0 -9 L 7 0 L 0 9 L -7 0 Z"/></g></g><g transform="translate(84.0,74.0) scale(1.6)" fill="#cf1f2d"><path d="M0 -9 L 7 0 L 0 9 L -7 0 Z"/></g><g transform="translate(166.0,74.0) scale(1.6)" fill="#cf1f2d"><path d="M0 -9 L 7 0 L 0 9 L -7 0 Z"/></g><g transform="translate(125.0,124.5) scale(1.6)" fill="#cf1f2d"><path d="M0 -9 L 7 0 L 0 9 L -7 0 Z"/></g><g transform="translate(84.0,175.0) scale(1.6)" fill="#cf1f2d"><path d="M0 -9 L 7 0 L 0 9 L -7 0 Z"/></g><g transform="translate(166.0,175.0) scale(1.6)" fill="#cf1f2d"><path d="M0 -9 L 7 0 L 0 9 L -7 0 Z"/></g><g transform="translate(84.0,276.0) scale(1.6) rotate(180)" fill="#cf1f2d"><path d="M0 -9 L 7 0 L 0 9 L -7 0 Z"/></g><g transform="translate(166.0,276.0) scale(1.6) rotate(180)" fill="#cf1f2d"><path d="M0 -9 L 7 0 L 0 9 L -7 0 Z"/></g></symbol><symbol id="card-8D" viewBox="0 0 250 350"><rect x="3" y="3" width="244" height="344" rx="18" fill="#ffffff" stroke="#d6d6d6" stroke-width="2"/><g transform="translate(31,42)"><text x="0" y="0" text-anchor="middle" font-family="Arial, sans-serif" font-weight="700" font-size="36" fill="#cf1f2d">8</text><g transform="translate(0,21) scale(0.8)" fill="#cf1f2d"><path d="M0 -9 L 7 0 L 0 9 L -7 0 Z"/></g></g><g transform="translate(219,308) rotate(180)"><text x="0" y="0" text-anchor="middle" font-family="Arial, sans-serif" font-weight="700" font-size="36" fill="#cf1f2d">8</text><g transform="translate(0,21) scale(0.8)" fill="#cf1f2d"><path d="M0 -9 L 7 0 L 0 9 L -7 0 Z"/></g></g><g transform="translate(84.0,74.0) scale(1.6)" fill="#cf1f2d"><path d="M0 -9 L 7 0 L 0 9 L -7 0 Z"/></g><g transform="translate(166.0,74.0) scale(1.6)" fill="#cf1f2d"><path d="M0 -9 L 7 0 L 0 9 L -7 0 Z"/></g><g transform="translate(125.0,124.5) scale(1.6)" fill="#cf1f2d"><path d="M0 -9 L 7 0 L 0 9 L -7 0 Z"/></g><g transform="translate(84.0,175.0) scale(1.6)" fill="#cf1f2d"><path d="M0 -9 L 7 0 L 0 9 L -7 0 Z"/></g><g transform="translate(166.0,175.0) scale(1.6)" fill="#cf1f2d"><path d="M0 -9 L 7 0 L 0 9 L -7 0 Z"/></g><g transform="translate(125.0,225.5) scale(1.6) rotate(180)" fill="#cf1f2d"><path d="M0 -9 L 7 0 L 0 9 L -7 0 Z"/></g><g transform="translate(84.0,276.0) scale(1.6) rotate(180)" fill="#cf1f2d"><path d="M0 -9 L 7 0 L 0 9 L -7 0 Z"/></g><g transform="translate(166.0,276.0) scale(1.6) rotate(180)" fill="#cf1f2d"><path d="M0 -9 L 7 0 L 0 9 L -7 0 Z"/></g></symbol><symbol id="card-9D" viewBox="0 0 250 350"><rect x="3" y="3" width="244" height="344" rx="18" fill="#ffffff" stroke="#d6d6d6" stroke-width="2"/><g transform="translate(31,42)"><text x="0" y="0" text-anchor="middle" font-family="Arial, sans-serif" font-weight="700" font-size="36" fill="#cf1f2d">9</text><g transform="translate(0,21) scale(0.8)" fill="#cf1f2d"><path d="M0 -9 L 7 0 L 0 9 L -7 0 Z"/></g></g><g transform="translate(219,308) rotate(180)"><text x="0" y="0" text-anchor="middle" font-family="Arial, sans-serif" font-weight="700" font-size="36" fill="#cf1f2d">9</text><g transform="translate(0,21) scale(0.8)" fill="#cf1f2d"><path d="M0 -9 L 7 0 L 0 9 L -7 0 Z"/></g></g><g transform="translate(84.0,74.0) scale(1.6)" fill="#cf1f2d"><path d="M0 -9 L 7 0 L 0 9 L -7 0 Z"/></g><g transform="translate(166.0,74.0) scale(1.6)" fill="#cf1f2d"><path d="M0 -9 L 7 0 L 0 9 L -7 0 Z"/></g><g transform="translate(84.0,141.3) scale(1.6)" fill="#cf1f2d"><path d="M0 -9 L 7 0 L 0 9 L -7 0 Z"/></g><g transform="translate(166.0,141.3) scale(1.6)" fill="#cf1f2d"><path d="M0 -9 L 7 0 L 0 9 L -7 0 Z"/></g><g transform="translate(125.0,175.0) scale(1.6)" fill="#cf1f2d"><path d="M0 -9 L 7 0 L 0 9 L -7 0 Z"/></g><g transform="translate(84.0,208.7) scale(1.6) rotate(180)" fill="#cf1f2d"><path d="M0 -9 L 7 0 L 0 9 L -7 0 Z"/></g><g transform="translate(166.0,208.7) scale(1.6) rotate(180)" fill="#cf1f2d"><path d="M0 -9 L 7 0 L 0 9 L -7 0 Z"/></g><g transform="translate(84.0,276.0) scale(1.6) rotate(180)" fill="#cf1f2d"><path d="M0 -9 L 7 0 L 0 9 L -7 0 Z"/></g><g transform="translate(166.0,276.0) scale(1.6) rotate(180)" fill="#cf1f2d"><path d="M0 -9 L 7 0 L 0 9 L -7 0 Z"/></g></symbol><symbol id="card-10D" viewBox="0 0 250 350"><rect x="3" y="3" width="244" height="344" rx="18" fill="#ffffff" stroke="#d6d6d6" stroke-width="2"/><g transform="translate(31,42)"><text x="0" y="0" text-anchor="middle" font-family="Arial, sans-serif" font-weight="700" font-size="30" fill="#cf1f2d">10</text><g transform="translate(0,21) scale(0.8)" fill="#cf1f2d"><path d="M0 -9 L 7 0 L 0 9 L -7 0 Z"/></g></g><g transform="translate(219,308) rotate(180)"><text x="0" y="0" text-anchor="middle" font-family="Arial, sans-serif" font-weight="700" font-size="30" fill="#cf1f2d">10</text><g transform="translate(0,21) scale(0.8)" fill="#cf1f2d"><path d="M0 -9 L 7 0 L 0 9 L -7 0 Z"/></g></g><g transform="translate(84.0,74.0) scale(1.6)" fill="#cf1f2d"><path d="M0 -9 L 7 0 L 0 9 L -7 0 Z"/></g><g transform="translate(166.0,74.0) scale(1.6)" fill="#cf1f2d"><path d="M0 -9 L 7 0 L 0 9 L -7 0 Z"/></g><g transform="translate(125.0,107.7) scale(1.6)" fill="#cf1f2d"><path d="M0 -9 L 7 0 L 0 9 L -7 0 Z"/></g><g transform="translate(84.0,141.3) scale(1.6)" fill="#cf1f2d"><path d="M0 -9 L 7 0 L 0 9 L -7 0 Z"/></g><g transform="translate(166.0,141.3) scale(1.6)" fill="#cf1f2d"><path d="M0 -9 L 7 0 L 0 9 L -7 0 Z"/></g><g transform="translate(84.0,208.7) scale(1.6) rotate(180)" fill="#cf1f2d"><path d="M0 -9 L 7 0 L 0 9 L -7 0 Z"/></g><g transform="translate(166.0,208.7) scale(1.6) rotate(180)" fill="#cf1f2d"><path d="M0 -9 L 7 0 L 0 9 L -7 0 Z"/></g><g transform="translate(125.0,242.3) scale(1.6) rotate(180)" fill="#cf1f2d"><path d="M0 -9 L 7 0 L 0 9 L -7 0 Z"/></g><g transform="translate(84.0,276.0) scale(1.6) rotate(180)" fill="#cf1f2d"><path d="M0 -9 L 7 0 L 0 9 L -7 0 Z"/></g><g transform="translate(166.0,276.0) scale(1.6) rotate(180)" fill="#cf1f2d"><path d="M0 -9 L 7 0 L 0 9 L -7 0 Z"/></g></symbol><symbol id="card-JD" viewBox="0 0 250 350"><rect x="3" y="3" width="244" height="344" rx="18" fill="#ffffff" stroke="#d6d6d6" stroke-width="2"/><g transform="translate(31,42)"><text x="0" y="0" text-anchor="middle" font-family="Arial, sans-serif" font-weight="700" font-size="36" fill="#cf1f2d">J</text><g transform="translate(0,21) scale(0.8)" fill="#cf1f2d"><path d="M0 -9 L 7 0 L 0 9 L -7 0 Z"/></g></g><g transform="translate(219,308) rotate(180)"><text x="0" y="0" text-anchor="middle" font-family="Arial, sans-serif" font-weight="700" font-size="36" fill="#cf1f2d">J</text><g transform="translate(0,21) scale(0.8)" fill="#cf1f2d"><path d="M0 -9 L 7 0 L 0 9 L -7 0 Z"/></g></g><rect x="42" y="50" width="166" height="250" rx="10" fill="none" stroke="#cf1f2d" stroke-width="2" opacity=".4"/><rect x="48" y="56" width="154" height="238" rx="8" fill="none" stroke="#c9a24a" stroke-width="1.5" opacity=".7"/><g transform="translate(125.0,92.0) scale(1.8)" fill="#cf1f2d"><path d="M0 -9 L 7 0 L 0 9 L -7 0 Z"/></g><g transform="translate(125.0,258.0) scale(1.8) rotate(180)" fill="#cf1f2d"><path d="M0 -9 L 7 0 L 0 9 L -7 0 Z"/></g><text x="125" y="206" text-anchor="middle" font-family="Georgia, serif" font-weight="700" font-size="120" fill="#cf1f2d">J</text></symbol><symbol id="card-QD" viewBox="0 0 250 350"><rect x="3" y="3" width="244" height="344" rx="18" fill="#ffffff" stroke="#d6d6d6" stroke-width="2"/><g transform="translate(31,42)"><text x="0" y="0" text-anchor="middle" font-family="Arial, sans-serif" font-weight="700" font-size="36" fill="#cf1f2d">Q</text><g transform="translate(0,21) scale(0.8)" fill="#cf1f2d"><path d="M0 -9 L 7 0 L 0 9 L -7 0 Z"/></g></g><g transform="translate(219,308) rotate(180)"><text x="0" y="0" text-anchor="middle" font-family="Arial, sans-serif" font-weight="700" font-size="36" fill="#cf1f2d">Q</text><g transform="translate(0,21) scale(0.8)" fill="#cf1f2d"><path d="M0 -9 L 7 0 L 0 9 L -7 0 Z"/></g></g><rect x="42" y="50" width="166" height="250" rx="10" fill="none" stroke="#cf1f2d" stroke-width="2" opacity=".4"/><rect x="48" y="56" width="154" height="238" rx="8" fill="none" stroke="#c9a24a" stroke-width="1.5" opacity=".7"/><g transform="translate(125.0,92.0) scale(1.8)" fill="#cf1f2d"><path d="M0 -9 L 7 0 L 0 9 L -7 0 Z"/></g><g transform="translate(125.0,258.0) scale(1.8) rotate(180)" fill="#cf1f2d"><path d="M0 -9 L 7 0 L 0 9 L -7 0 Z"/></g><text x="125" y="206" text-anchor="middle" font-family="Georgia, serif" font-weight="700" font-size="120" fill="#cf1f2d">Q</text></symbol><symbol id="card-KD" viewBox="0 0 250 350"><rect x="3" y="3" width="244" height="344" rx="18" fill="#ffffff" stroke="#d6d6d6" stroke-width="2"/><g transform="translate(31,42)"><text x="0" y="0" text-anchor="middle" font-family="Arial, sans-serif" font-weight="700" font-size="36" fill="#cf1f2d">K</text><g transform="translate(0,21) scale(0.8)" fill="#cf1f2d"><path d="M0 -9 L 7 0 L 0 9 L -7 0 Z"/></g></g><g transform="translate(219,308) rotate(180)"><text x="0" y="0" text-anchor="middle" font-family="Arial, sans-serif" font-weight="700" font-size="36" fill="#cf1f2d">K</text><g transform="translate(0,21) scale(0.8)" fill="#cf1f2d"><path d="M0 -9 L 7 0 L 0 9 L -7 0 Z"/></g></g><rect x="42" y="50" width="166" height="250" rx="10" fill="none" stroke="#cf1f2d" stroke-width="2" opacity=".4"/><rect x="48" y="56" width="154" height="238" rx="8" fill="none" stroke="#c9a24a" stroke-width="1.5" opacity=".7"/><g transform="translate(125.0,92.0) scale(1.8)" fill="#cf1f2d"><path d="M0 -9 L 7 0 L 0 9 L -7 0 Z"/></g><g transform="translate(125.0,258.0) scale(1.8) rotate(180)" fill="#cf1f2d"><path d="M0 -9 L 7 0 L 0 9 L -7 0 Z"/></g><text x="125" y="206" text-anchor="middle" font-family="Georgia, serif" font-weight="700" font-size="120" fill="#cf1f2d">K</text></symbol><symbol id="card-AC" viewBox="0 0 250 350"><rect x="3" y="3" width="244" height="344" rx="18" fill="#ffffff" stroke="#d6d6d6" stroke-width="2"/><g transform="translate(31,42)"><text x="0" y="0" text-anchor="middle" font-family="Arial, sans-serif" font-weight="700" font-size="36" fill="#1b1b1b">A</text><g transform="translate(0,21) scale(0.8)" fill="#1b1b1b"><circle cx="0" cy="-4.2" r="4.3"/><circle cx="-4.6" cy="2.2" r="4.3"/><circle cx="4.6" cy="2.2" r="4.3"/><path d="M-2.6 9.6 C -1 6 -0.6 4.6 -1.2 1.4 C 0 3 0 3 1.2 1.4 C 0.6 4.6 1 6 2.6 9.6 Z"/></g></g><g transform="translate(219,308) rotate(180)"><text x="0" y="0" text-anchor="middle" font-family="Arial, sans-serif" font-weight="700" font-size="36" fill="#1b1b1b">A</text><g transform="translate(0,21) scale(0.8)" fill="#1b1b1b"><circle cx="0" cy="-4.2" r="4.3"/><circle cx="-4.6" cy="2.2" r="4.3"/><circle cx="4.6" cy="2.2" r="4.3"/><path d="M-2.6 9.6 C -1 6 -0.6 4.6 -1.2 1.4 C 0 3 0 3 1.2 1.4 C 0.6 4.6 1 6 2.6 9.6 Z"/></g></g><g transform="translate(125.0,175.0) scale(3.6)" fill="#1b1b1b"><circle cx="0" cy="-4.2" r="4.3"/><circle cx="-4.6" cy="2.2" r="4.3"/><circle cx="4.6" cy="2.2" r="4.3"/><path d="M-2.6 9.6 C -1 6 -0.6 4.6 -1.2 1.4 C 0 3 0 3 1.2 1.4 C 0.6 4.6 1 6 2.6 9.6 Z"/></g></symbol><symbol id="card-2C" viewBox="0 0 250 350"><rect x="3" y="3" width="244" height="344" rx="18" fill="#ffffff" stroke="#d6d6d6" stroke-width="2"/><g transform="translate(31,42)"><text x="0" y="0" text-anchor="middle" font-family="Arial, sans-serif" font-weight="700" font-size="36" fill="#1b1b1b">2</text><g transform="translate(0,21) scale(0.8)" fill="#1b1b1b"><circle cx="0" cy="-4.2" r="4.3"/><circle cx="-4.6" cy="2.2" r="4.3"/><circle cx="4.6" cy="2.2" r="4.3"/><path d="M-2.6 9.6 C -1 6 -0.6 4.6 -1.2 1.4 C 0 3 0 3 1.2 1.4 C 0.6 4.6 1 6 2.6 9.6 Z"/></g></g><g transform="translate(219,308) rotate(180)"><text x="0" y="0" text-anchor="middle" font-family="Arial, sans-serif" font-weight="700" font-size="36" fill="#1b1b1b">2</text><g transform="translate(0,21) scale(0.8)" fill="#1b1b1b"><circle cx="0" cy="-4.2" r="4.3"/><circle cx="-4.6" cy="2.2" r="4.3"/><circle cx="4.6" cy="2.2" r="4.3"/><path d="M-2.6 9.6 C -1 6 -0.6 4.6 -1.2 1.4 C 0 3 0 3 1.2 1.4 C 0.6 4.6 1 6 2.6 9.6 Z"/></g></g><g transform="translate(125.0,74.0) scale(1.6)" fill="#1b1b1b"><circle cx="0" cy="-4.2" r="4.3"/><circle cx="-4.6" cy="2.2" r="4.3"/><circle cx="4.6" cy="2.2" r="4.3"/><path d="M-2.6 9.6 C -1 6 -0.6 4.6 -1.2 1.4 C 0 3 0 3 1.2 1.4 C 0.6 4.6 1 6 2.6 9.6 Z"/></g><g transform="translate(125.0,276.0) scale(1.6) rotate(180)" fill="#1b1b1b"><circle cx="0" cy="-4.2" r="4.3"/><circle cx="-4.6" cy="2.2" r="4.3"/><circle cx="4.6" cy="2.2" r="4.3"/><path d="M-2.6 9.6 C -1 6 -0.6 4.6 -1.2 1.4 C 0 3 0 3 1.2 1.4 C 0.6 4.6 1 6 2.6 9.6 Z"/></g></symbol><symbol id="card-3C" viewBox="0 0 250 350"><rect x="3" y="3" width="244" height="344" rx="18" fill="#ffffff" stroke="#d6d6d6" stroke-width="2"/><g transform="translate(31,42)"><text x="0" y="0" text-anchor="middle" font-family="Arial, sans-serif" font-weight="700" font-size="36" fill="#1b1b1b">3</text><g transform="translate(0,21) scale(0.8)" fill="#1b1b1b"><circle cx="0" cy="-4.2" r="4.3"/><circle cx="-4.6" cy="2.2" r="4.3"/><circle cx="4.6" cy="2.2" r="4.3"/><path d="M-2.6 9.6 C -1 6 -0.6 4.6 -1.2 1.4 C 0 3 0 3 1.2 1.4 C 0.6 4.6 1 6 2.6 9.6 Z"/></g></g><g transform="translate(219,308) rotate(180)"><text x="0" y="0" text-anchor="middle" font-family="Arial, sans-serif" font-weight="700" font-size="36" fill="#1b1b1b">3</text><g transform="translate(0,21) scale(0.8)" fill="#1b1b1b"><circle cx="0" cy="-4.2" r="4.3"/><circle cx="-4.6" cy="2.2" r="4.3"/><circle cx="4.6" cy="2.2" r="4.3"/><path d="M-2.6 9.6 C -1 6 -0.6 4.6 -1.2 1.4 C 0 3 0 3 1.2 1.4 C 0.6 4.6 1 6 2.6 9.6 Z"/></g></g><g transform="translate(125.0,74.0) scale(1.6)" fill="#1b1b1b"><circle cx="0" cy="-4.2" r="4.3"/><circle cx="-4.6" cy="2.2" r="4.3"/><circle cx="4.6" cy="2.2" r="4.3"/><path d="M-2.6 9.6 C -1 6 -0.6 4.6 -1.2 1.4 C 0 3 0 3 1.2 1.4 C 0.6 4.6 1 6 2.6 9.6 Z"/></g><g transform="translate(125.0,175.0) scale(1.6)" fill="#1b1b1b"><circle cx="0" cy="-4.2" r="4.3"/><circle cx="-4.6" cy="2.2" r="4.3"/><circle cx="4.6" cy="2.2" r="4.3"/><path d="M-2.6 9.6 C -1 6 -0.6 4.6 -1.2 1.4 C 0 3 0 3 1.2 1.4 C 0.6 4.6 1 6 2.6 9.6 Z"/></g><g transform="translate(125.0,276.0) scale(1.6) rotate(180)" fill="#1b1b1b"><circle cx="0" cy="-4.2" r="4.3"/><circle cx="-4.6" cy="2.2" r="4.3"/><circle cx="4.6" cy="2.2" r="4.3"/><path d="M-2.6 9.6 C -1 6 -0.6 4.6 -1.2 1.4 C 0 3 0 3 1.2 1.4 C 0.6 4.6 1 6 2.6 9.6 Z"/></g></symbol><symbol id="card-4C" viewBox="0 0 250 350"><rect x="3" y="3" width="244" height="344" rx="18" fill="#ffffff" stroke="#d6d6d6" stroke-width="2"/><g transform="translate(31,42)"><text x="0" y="0" text-anchor="middle" font-family="Arial, sans-serif" font-weight="700" font-size="36" fill="#1b1b1b">4</text><g transform="translate(0,21) scale(0.8)" fill="#1b1b1b"><circle cx="0" cy="-4.2" r="4.3"/><circle cx="-4.6" cy="2.2" r="4.3"/><circle cx="4.6" cy="2.2" r="4.3"/><path d="M-2.6 9.6 C -1 6 -0.6 4.6 -1.2 1.4 C 0 3 0 3 1.2 1.4 C 0.6 4.6 1 6 2.6 9.6 Z"/></g></g><g transform="translate(219,308) rotate(180)"><text x="0" y="0" text-anchor="middle" font-family="Arial, sans-serif" font-weight="700" font-size="36" fill="#1b1b1b">4</text><g transform="translate(0,21) scale(0.8)" fill="#1b1b1b"><circle cx="0" cy="-4.2" r="4.3"/><circle cx="-4.6" cy="2.2" r="4.3"/><circle cx="4.6" cy="2.2" r="4.3"/><path d="M-2.6 9.6 C -1 6 -0.6 4.6 -1.2 1.4 C 0 3 0 3 1.2 1.4 C 0.6 4.6 1 6 2.6 9.6 Z"/></g></g><g transform="translate(84.0,74.0) scale(1.6)" fill="#1b1b1b"><circle cx="0" cy="-4.2" r="4.3"/><circle cx="-4.6" cy="2.2" r="4.3"/><circle cx="4.6" cy="2.2" r="4.3"/><path d="M-2.6 9.6 C -1 6 -0.6 4.6 -1.2 1.4 C 0 3 0 3 1.2 1.4 C 0.6 4.6 1 6 2.6 9.6 Z"/></g><g transform="translate(166.0,74.0) scale(1.6)" fill="#1b1b1b"><circle cx="0" cy="-4.2" r="4.3"/><circle cx="-4.6" cy="2.2" r="4.3"/><circle cx="4.6" cy="2.2" r="4.3"/><path d="M-2.6 9.6 C -1 6 -0.6 4.6 -1.2 1.4 C 0 3 0 3 1.2 1.4 C 0.6 4.6 1 6 2.6 9.6 Z"/></g><g transform="translate(84.0,276.0) scale(1.6) rotate(180)" fill="#1b1b1b"><circle cx="0" cy="-4.2" r="4.3"/><circle cx="-4.6" cy="2.2" r="4.3"/><circle cx="4.6" cy="2.2" r="4.3"/><path d="M-2.6 9.6 C -1 6 -0.6 4.6 -1.2 1.4 C 0 3 0 3 1.2 1.4 C 0.6 4.6 1 6 2.6 9.6 Z"/></g><g transform="translate(166.0,276.0) scale(1.6) rotate(180)" fill="#1b1b1b"><circle cx="0" cy="-4.2" r="4.3"/><circle cx="-4.6" cy="2.2" r="4.3"/><circle cx="4.6" cy="2.2" r="4.3"/><path d="M-2.6 9.6 C -1 6 -0.6 4.6 -1.2 1.4 C 0 3 0 3 1.2 1.4 C 0.6 4.6 1 6 2.6 9.6 Z"/></g></symbol><symbol id="card-5C" viewBox="0 0 250 350"><rect x="3" y="3" width="244" height="344" rx="18" fill="#ffffff" stroke="#d6d6d6" stroke-width="2"/><g transform="translate(31,42)"><text x="0" y="0" text-anchor="middle" font-family="Arial, sans-serif" font-weight="700" font-size="36" fill="#1b1b1b">5</text><g transform="translate(0,21) scale(0.8)" fill="#1b1b1b"><circle cx="0" cy="-4.2" r="4.3"/><circle cx="-4.6" cy="2.2" r="4.3"/><circle cx="4.6" cy="2.2" r="4.3"/><path d="M-2.6 9.6 C -1 6 -0.6 4.6 -1.2 1.4 C 0 3 0 3 1.2 1.4 C 0.6 4.6 1 6 2.6 9.6 Z"/></g></g><g transform="translate(219,308) rotate(180)"><text x="0" y="0" text-anchor="middle" font-family="Arial, sans-serif" font-weight="700" font-size="36" fill="#1b1b1b">5</text><g transform="translate(0,21) scale(0.8)" fill="#1b1b1b"><circle cx="0" cy="-4.2" r="4.3"/><circle cx="-4.6" cy="2.2" r="4.3"/><circle cx="4.6" cy="2.2" r="4.3"/><path d="M-2.6 9.6 C -1 6 -0.6 4.6 -1.2 1.4 C 0 3 0 3 1.2 1.4 C 0.6 4.6 1 6 2.6 9.6 Z"/></g></g><g transform="translate(84.0,74.0) scale(1.6)" fill="#1b1b1b"><circle cx="0" cy="-4.2" r="4.3"/><circle cx="-4.6" cy="2.2" r="4.3"/><circle cx="4.6" cy="2.2" r="4.3"/><path d="M-2.6 9.6 C -1 6 -0.6 4.6 -1.2 1.4 C 0 3 0 3 1.2 1.4 C 0.6 4.6 1 6 2.6 9.6 Z"/></g><g transform="translate(166.0,74.0) scale(1.6)" fill="#1b1b1b"><circle cx="0" cy="-4.2" r="4.3"/><circle cx="-4.6" cy="2.2" r="4.3"/><circle cx="4.6" cy="2.2" r="4.3"/><path d="M-2.6 9.6 C -1 6 -0.6 4.6 -1.2 1.4 C 0 3 0 3 1.2 1.4 C 0.6 4.6 1 6 2.6 9.6 Z"/></g><g transform="translate(125.0,175.0) scale(1.6)" fill="#1b1b1b"><circle cx="0" cy="-4.2" r="4.3"/><circle cx="-4.6" cy="2.2" r="4.3"/><circle cx="4.6" cy="2.2" r="4.3"/><path d="M-2.6 9.6 C -1 6 -0.6 4.6 -1.2 1.4 C 0 3 0 3 1.2 1.4 C 0.6 4.6 1 6 2.6 9.6 Z"/></g><g transform="translate(84.0,276.0) scale(1.6) rotate(180)" fill="#1b1b1b"><circle cx="0" cy="-4.2" r="4.3"/><circle cx="-4.6" cy="2.2" r="4.3"/><circle cx="4.6" cy="2.2" r="4.3"/><path d="M-2.6 9.6 C -1 6 -0.6 4.6 -1.2 1.4 C 0 3 0 3 1.2 1.4 C 0.6 4.6 1 6 2.6 9.6 Z"/></g><g transform="translate(166.0,276.0) scale(1.6) rotate(180)" fill="#1b1b1b"><circle cx="0" cy="-4.2" r="4.3"/><circle cx="-4.6" cy="2.2" r="4.3"/><circle cx="4.6" cy="2.2" r="4.3"/><path d="M-2.6 9.6 C -1 6 -0.6 4.6 -1.2 1.4 C 0 3 0 3 1.2 1.4 C 0.6 4.6 1 6 2.6 9.6 Z"/></g></symbol><symbol id="card-6C" viewBox="0 0 250 350"><rect x="3" y="3" width="244" height="344" rx="18" fill="#ffffff" stroke="#d6d6d6" stroke-width="2"/><g transform="translate(31,42)"><text x="0" y="0" text-anchor="middle" font-family="Arial, sans-serif" font-weight="700" font-size="36" fill="#1b1b1b">6</text><g transform="translate(0,21) scale(0.8)" fill="#1b1b1b"><circle cx="0" cy="-4.2" r="4.3"/><circle cx="-4.6" cy="2.2" r="4.3"/><circle cx="4.6" cy="2.2" r="4.3"/><path d="M-2.6 9.6 C -1 6 -0.6 4.6 -1.2 1.4 C 0 3 0 3 1.2 1.4 C 0.6 4.6 1 6 2.6 9.6 Z"/></g></g><g transform="translate(219,308) rotate(180)"><text x="0" y="0" text-anchor="middle" font-family="Arial, sans-serif" font-weight="700" font-size="36" fill="#1b1b1b">6</text><g transform="translate(0,21) scale(0.8)" fill="#1b1b1b"><circle cx="0" cy="-4.2" r="4.3"/><circle cx="-4.6" cy="2.2" r="4.3"/><circle cx="4.6" cy="2.2" r="4.3"/><path d="M-2.6 9.6 C -1 6 -0.6 4.6 -1.2 1.4 C 0 3 0 3 1.2 1.4 C 0.6 4.6 1 6 2.6 9.6 Z"/></g></g><g transform="translate(84.0,74.0) scale(1.6)" fill="#1b1b1b"><circle cx="0" cy="-4.2" r="4.3"/><circle cx="-4.6" cy="2.2" r="4.3"/><circle cx="4.6" cy="2.2" r="4.3"/><path d="M-2.6 9.6 C -1 6 -0.6 4.6 -1.2 1.4 C 0 3 0 3 1.2 1.4 C 0.6 4.6 1 6 2.6 9.6 Z"/></g><g transform="translate(166.0,74.0) scale(1.6)" fill="#1b1b1b"><circle cx="0" cy="-4.2" r="4.3"/><circle cx="-4.6" cy="2.2" r="4.3"/><circle cx="4.6" cy="2.2" r="4.3"/><path d="M-2.6 9.6 C -1 6 -0.6 4.6 -1.2 1.4 C 0 3 0 3 1.2 1.4 C 0.6 4.6 1 6 2.6 9.6 Z"/></g><g transform="translate(84.0,175.0) scale(1.6)" fill="#1b1b1b"><circle cx="0" cy="-4.2" r="4.3"/><circle cx="-4.6" cy="2.2" r="4.3"/><circle cx="4.6" cy="2.2" r="4.3"/><path d="M-2.6 9.6 C -1 6 -0.6 4.6 -1.2 1.4 C 0 3 0 3 1.2 1.4 C 0.6 4.6 1 6 2.6 9.6 Z"/></g><g transform="translate(166.0,175.0) scale(1.6)" fill="#1b1b1b"><circle cx="0" cy="-4.2" r="4.3"/><circle cx="-4.6" cy="2.2" r="4.3"/><circle cx="4.6" cy="2.2" r="4.3"/><path d="M-2.6 9.6 C -1 6 -0.6 4.6 -1.2 1.4 C 0 3 0 3 1.2 1.4 C 0.6 4.6 1 6 2.6 9.6 Z"/></g><g transform="translate(84.0,276.0) scale(1.6) rotate(180)" fill="#1b1b1b"><circle cx="0" cy="-4.2" r="4.3"/><circle cx="-4.6" cy="2.2" r="4.3"/><circle cx="4.6" cy="2.2" r="4.3"/><path d="M-2.6 9.6 C -1 6 -0.6 4.6 -1.2 1.4 C 0 3 0 3 1.2 1.4 C 0.6 4.6 1 6 2.6 9.6 Z"/></g><g transform="translate(166.0,276.0) scale(1.6) rotate(180)" fill="#1b1b1b"><circle cx="0" cy="-4.2" r="4.3"/><circle cx="-4.6" cy="2.2" r="4.3"/><circle cx="4.6" cy="2.2" r="4.3"/><path d="M-2.6 9.6 C -1 6 -0.6 4.6 -1.2 1.4 C 0 3 0 3 1.2 1.4 C 0.6 4.6 1 6 2.6 9.6 Z"/></g></symbol><symbol id="card-7C" viewBox="0 0 250 350"><rect x="3" y="3" width="244" height="344" rx="18" fill="#ffffff" stroke="#d6d6d6" stroke-width="2"/><g transform="translate(31,42)"><text x="0" y="0" text-anchor="middle" font-family="Arial, sans-serif" font-weight="700" font-size="36" fill="#1b1b1b">7</text><g transform="translate(0,21) scale(0.8)" fill="#1b1b1b"><circle cx="0" cy="-4.2" r="4.3"/><circle cx="-4.6" cy="2.2" r="4.3"/><circle cx="4.6" cy="2.2" r="4.3"/><path d="M-2.6 9.6 C -1 6 -0.6 4.6 -1.2 1.4 C 0 3 0 3 1.2 1.4 C 0.6 4.6 1 6 2.6 9.6 Z"/></g></g><g transform="translate(219,308) rotate(180)"><text x="0" y="0" text-anchor="middle" font-family="Arial, sans-serif" font-weight="700" font-size="36" fill="#1b1b1b">7</text><g transform="translate(0,21) scale(0.8)" fill="#1b1b1b"><circle cx="0" cy="-4.2" r="4.3"/><circle cx="-4.6" cy="2.2" r="4.3"/><circle cx="4.6" cy="2.2" r="4.3"/><path d="M-2.6 9.6 C -1 6 -0.6 4.6 -1.2 1.4 C 0 3 0 3 1.2 1.4 C 0.6 4.6 1 6 2.6 9.6 Z"/></g></g><g transform="translate(84.0,74.0) scale(1.6)" fill="#1b1b1b"><circle cx="0" cy="-4.2" r="4.3"/><circle cx="-4.6" cy="2.2" r="4.3"/><circle cx="4.6" cy="2.2" r="4.3"/><path d="M-2.6 9.6 C -1 6 -0.6 4.6 -1.2 1.4 C 0 3 0 3 1.2 1.4 C 0.6 4.6 1 6 2.6 9.6 Z"/></g><g transform="translate(166.0,74.0) scale(1.6)" fill="#1b1b1b"><circle cx="0" cy="-4.2" r="4.3"/><circle cx="-4.6" cy="2.2" r="4.3"/><circle cx="4.6" cy="2.2" r="4.3"/><path d="M-2.6 9.6 C -1 6 -0.6 4.6 -1.2 1.4 C 0 3 0 3 1.2 1.4 C 0.6 4.6 1 6 2.6 9.6 Z"/></g><g transform="translate(125.0,124.5) scale(1.6)" fill="#1b1b1b"><circle cx="0" cy="-4.2" r="4.3"/><circle cx="-4.6" cy="2.2" r="4.3"/><circle cx="4.6" cy="2.2" r="4.3"/><path d="M-2.6 9.6 C -1 6 -0.6 4.6 -1.2 1.4 C 0 3 0 3 1.2 1.4 C 0.6 4.6 1 6 2.6 9.6 Z"/></g><g transform="translate(84.0,175.0) scale(1.6)" fill="#1b1b1b"><circle cx="0" cy="-4.2" r="4.3"/><circle cx="-4.6" cy="2.2" r="4.3"/><circle cx="4.6" cy="2.2" r="4.3"/><path d="M-2.6 9.6 C -1 6 -0.6 4.6 -1.2 1.4 C 0 3 0 3 1.2 1.4 C 0.6 4.6 1 6 2.6 9.6 Z"/></g><g transform="translate(166.0,175.0) scale(1.6)" fill="#1b1b1b"><circle cx="0" cy="-4.2" r="4.3"/><circle cx="-4.6" cy="2.2" r="4.3"/><circle cx="4.6" cy="2.2" r="4.3"/><path d="M-2.6 9.6 C -1 6 -0.6 4.6 -1.2 1.4 C 0 3 0 3 1.2 1.4 C 0.6 4.6 1 6 2.6 9.6 Z"/></g><g transform="translate(84.0,276.0) scale(1.6) rotate(180)" fill="#1b1b1b"><circle cx="0" cy="-4.2" r="4.3"/><circle cx="-4.6" cy="2.2" r="4.3"/><circle cx="4.6" cy="2.2" r="4.3"/><path d="M-2.6 9.6 C -1 6 -0.6 4.6 -1.2 1.4 C 0 3 0 3 1.2 1.4 C 0.6 4.6 1 6 2.6 9.6 Z"/></g><g transform="translate(166.0,276.0) scale(1.6) rotate(180)" fill="#1b1b1b"><circle cx="0" cy="-4.2" r="4.3"/><circle cx="-4.6" cy="2.2" r="4.3"/><circle cx="4.6" cy="2.2" r="4.3"/><path d="M-2.6 9.6 C -1 6 -0.6 4.6 -1.2 1.4 C 0 3 0 3 1.2 1.4 C 0.6 4.6 1 6 2.6 9.6 Z"/></g></symbol><symbol id="card-8C" viewBox="0 0 250 350"><rect x="3" y="3" width="244" height="344" rx="18" fill="#ffffff" stroke="#d6d6d6" stroke-width="2"/><g transform="translate(31,42)"><text x="0" y="0" text-anchor="middle" font-family="Arial, sans-serif" font-weight="700" font-size="36" fill="#1b1b1b">8</text><g transform="translate(0,21) scale(0.8)" fill="#1b1b1b"><circle cx="0" cy="-4.2" r="4.3"/><circle cx="-4.6" cy="2.2" r="4.3"/><circle cx="4.6" cy="2.2" r="4.3"/><path d="M-2.6 9.6 C -1 6 -0.6 4.6 -1.2 1.4 C 0 3 0 3 1.2 1.4 C 0.6 4.6 1 6 2.6 9.6 Z"/></g></g><g transform="translate(219,308) rotate(180)"><text x="0" y="0" text-anchor="middle" font-family="Arial, sans-serif" font-weight="700" font-size="36" fill="#1b1b1b">8</text><g transform="translate(0,21) scale(0.8)" fill="#1b1b1b"><circle cx="0" cy="-4.2" r="4.3"/><circle cx="-4.6" cy="2.2" r="4.3"/><circle cx="4.6" cy="2.2" r="4.3"/><path d="M-2.6 9.6 C -1 6 -0.6 4.6 -1.2 1.4 C 0 3 0 3 1.2 1.4 C 0.6 4.6 1 6 2.6 9.6 Z"/></g></g><g transform="translate(84.0,74.0) scale(1.6)" fill="#1b1b1b"><circle cx="0" cy="-4.2" r="4.3"/><circle cx="-4.6" cy="2.2" r="4.3"/><circle cx="4.6" cy="2.2" r="4.3"/><path d="M-2.6 9.6 C -1 6 -0.6 4.6 -1.2 1.4 C 0 3 0 3 1.2 1.4 C 0.6 4.6 1 6 2.6 9.6 Z"/></g><g transform="translate(166.0,74.0) scale(1.6)" fill="#1b1b1b"><circle cx="0" cy="-4.2" r="4.3"/><circle cx="-4.6" cy="2.2" r="4.3"/><circle cx="4.6" cy="2.2" r="4.3"/><path d="M-2.6 9.6 C -1 6 -0.6 4.6 -1.2 1.4 C 0 3 0 3 1.2 1.4 C 0.6 4.6 1 6 2.6 9.6 Z"/></g><g transform="translate(125.0,124.5) scale(1.6)" fill="#1b1b1b"><circle cx="0" cy="-4.2" r="4.3"/><circle cx="-4.6" cy="2.2" r="4.3"/><circle cx="4.6" cy="2.2" r="4.3"/><path d="M-2.6 9.6 C -1 6 -0.6 4.6 -1.2 1.4 C 0 3 0 3 1.2 1.4 C 0.6 4.6 1 6 2.6 9.6 Z"/></g><g transform="translate(84.0,175.0) scale(1.6)" fill="#1b1b1b"><circle cx="0" cy="-4.2" r="4.3"/><circle cx="-4.6" cy="2.2" r="4.3"/><circle cx="4.6" cy="2.2" r="4.3"/><path d="M-2.6 9.6 C -1 6 -0.6 4.6 -1.2 1.4 C 0 3 0 3 1.2 1.4 C 0.6 4.6 1 6 2.6 9.6 Z"/></g><g transform="translate(166.0,175.0) scale(1.6)" fill="#1b1b1b"><circle cx="0" cy="-4.2" r="4.3"/><circle cx="-4.6" cy="2.2" r="4.3"/><circle cx="4.6" cy="2.2" r="4.3"/><path d="M-2.6 9.6 C -1 6 -0.6 4.6 -1.2 1.4 C 0 3 0 3 1.2 1.4 C 0.6 4.6 1 6 2.6 9.6 Z"/></g><g transform="translate(125.0,225.5) scale(1.6) rotate(180)" fill="#1b1b1b"><circle cx="0" cy="-4.2" r="4.3"/><circle cx="-4.6" cy="2.2" r="4.3"/><circle cx="4.6" cy="2.2" r="4.3"/><path d="M-2.6 9.6 C -1 6 -0.6 4.6 -1.2 1.4 C 0 3 0 3 1.2 1.4 C 0.6 4.6 1 6 2.6 9.6 Z"/></g><g transform="translate(84.0,276.0) scale(1.6) rotate(180)" fill="#1b1b1b"><circle cx="0" cy="-4.2" r="4.3"/><circle cx="-4.6" cy="2.2" r="4.3"/><circle cx="4.6" cy="2.2" r="4.3"/><path d="M-2.6 9.6 C -1 6 -0.6 4.6 -1.2 1.4 C 0 3 0 3 1.2 1.4 C 0.6 4.6 1 6 2.6 9.6 Z"/></g><g transform="translate(166.0,276.0) scale(1.6) rotate(180)" fill="#1b1b1b"><circle cx="0" cy="-4.2" r="4.3"/><circle cx="-4.6" cy="2.2" r="4.3"/><circle cx="4.6" cy="2.2" r="4.3"/><path d="M-2.6 9.6 C -1 6 -0.6 4.6 -1.2 1.4 C 0 3 0 3 1.2 1.4 C 0.6 4.6 1 6 2.6 9.6 Z"/></g></symbol><symbol id="card-9C" viewBox="0 0 250 350"><rect x="3" y="3" width="244" height="344" rx="18" fill="#ffffff" stroke="#d6d6d6" stroke-width="2"/><g transform="translate(31,42)"><text x="0" y="0" text-anchor="middle" font-family="Arial, sans-serif" font-weight="700" font-size="36" fill="#1b1b1b">9</text><g transform="translate(0,21) scale(0.8)" fill="#1b1b1b"><circle cx="0" cy="-4.2" r="4.3"/><circle cx="-4.6" cy="2.2" r="4.3"/><circle cx="4.6" cy="2.2" r="4.3"/><path d="M-2.6 9.6 C -1 6 -0.6 4.6 -1.2 1.4 C 0 3 0 3 1.2 1.4 C 0.6 4.6 1 6 2.6 9.6 Z"/></g></g><g transform="translate(219,308) rotate(180)"><text x="0" y="0" text-anchor="middle" font-family="Arial, sans-serif" font-weight="700" font-size="36" fill="#1b1b1b">9</text><g transform="translate(0,21) scale(0.8)" fill="#1b1b1b"><circle cx="0" cy="-4.2" r="4.3"/><circle cx="-4.6" cy="2.2" r="4.3"/><circle cx="4.6" cy="2.2" r="4.3"/><path d="M-2.6 9.6 C -1 6 -0.6 4.6 -1.2 1.4 C 0 3 0 3 1.2 1.4 C 0.6 4.6 1 6 2.6 9.6 Z"/></g></g><g transform="translate(84.0,74.0) scale(1.6)" fill="#1b1b1b"><circle cx="0" cy="-4.2" r="4.3"/><circle cx="-4.6" cy="2.2" r="4.3"/><circle cx="4.6" cy="2.2" r="4.3"/><path d="M-2.6 9.6 C -1 6 -0.6 4.6 -1.2 1.4 C 0 3 0 3 1.2 1.4 C 0.6 4.6 1 6 2.6 9.6 Z"/></g><g transform="translate(166.0,74.0) scale(1.6)" fill="#1b1b1b"><circle cx="0" cy="-4.2" r="4.3"/><circle cx="-4.6" cy="2.2" r="4.3"/><circle cx="4.6" cy="2.2" r="4.3"/><path d="M-2.6 9.6 C -1 6 -0.6 4.6 -1.2 1.4 C 0 3 0 3 1.2 1.4 C 0.6 4.6 1 6 2.6 9.6 Z"/></g><g transform="translate(84.0,141.3) scale(1.6)" fill="#1b1b1b"><circle cx="0" cy="-4.2" r="4.3"/><circle cx="-4.6" cy="2.2" r="4.3"/><circle cx="4.6" cy="2.2" r="4.3"/><path d="M-2.6 9.6 C -1 6 -0.6 4.6 -1.2 1.4 C 0 3 0 3 1.2 1.4 C 0.6 4.6 1 6 2.6 9.6 Z"/></g><g transform="translate(166.0,141.3) scale(1.6)" fill="#1b1b1b"><circle cx="0" cy="-4.2" r="4.3"/><circle cx="-4.6" cy="2.2" r="4.3"/><circle cx="4.6" cy="2.2" r="4.3"/><path d="M-2.6 9.6 C -1 6 -0.6 4.6 -1.2 1.4 C 0 3 0 3 1.2 1.4 C 0.6 4.6 1 6 2.6 9.6 Z"/></g><g transform="translate(125.0,175.0) scale(1.6)" fill="#1b1b1b"><circle cx="0" cy="-4.2" r="4.3"/><circle cx="-4.6" cy="2.2" r="4.3"/><circle cx="4.6" cy="2.2" r="4.3"/><path d="M-2.6 9.6 C -1 6 -0.6 4.6 -1.2 1.4 C 0 3 0 3 1.2 1.4 C 0.6 4.6 1 6 2.6 9.6 Z"/></g><g transform="translate(84.0,208.7) scale(1.6) rotate(180)" fill="#1b1b1b"><circle cx="0" cy="-4.2" r="4.3"/><circle cx="-4.6" cy="2.2" r="4.3"/><circle cx="4.6" cy="2.2" r="4.3"/><path d="M-2.6 9.6 C -1 6 -0.6 4.6 -1.2 1.4 C 0 3 0 3 1.2 1.4 C 0.6 4.6 1 6 2.6 9.6 Z"/></g><g transform="translate(166.0,208.7) scale(1.6) rotate(180)" fill="#1b1b1b"><circle cx="0" cy="-4.2" r="4.3"/><circle cx="-4.6" cy="2.2" r="4.3"/><circle cx="4.6" cy="2.2" r="4.3"/><path d="M-2.6 9.6 C -1 6 -0.6 4.6 -1.2 1.4 C 0 3 0 3 1.2 1.4 C 0.6 4.6 1 6 2.6 9.6 Z"/></g><g transform="translate(84.0,276.0) scale(1.6) rotate(180)" fill="#1b1b1b"><circle cx="0" cy="-4.2" r="4.3"/><circle cx="-4.6" cy="2.2" r="4.3"/><circle cx="4.6" cy="2.2" r="4.3"/><path d="M-2.6 9.6 C -1 6 -0.6 4.6 -1.2 1.4 C 0 3 0 3 1.2 1.4 C 0.6 4.6 1 6 2.6 9.6 Z"/></g><g transform="translate(166.0,276.0) scale(1.6) rotate(180)" fill="#1b1b1b"><circle cx="0" cy="-4.2" r="4.3"/><circle cx="-4.6" cy="2.2" r="4.3"/><circle cx="4.6" cy="2.2" r="4.3"/><path d="M-2.6 9.6 C -1 6 -0.6 4.6 -1.2 1.4 C 0 3 0 3 1.2 1.4 C 0.6 4.6 1 6 2.6 9.6 Z"/></g></symbol><symbol id="card-10C" viewBox="0 0 250 350"><rect x="3" y="3" width="244" height="344" rx="18" fill="#ffffff" stroke="#d6d6d6" stroke-width="2"/><g transform="translate(31,42)"><text x="0" y="0" text-anchor="middle" font-family="Arial, sans-serif" font-weight="700" font-size="30" fill="#1b1b1b">10</text><g transform="translate(0,21) scale(0.8)" fill="#1b1b1b"><circle cx="0" cy="-4.2" r="4.3"/><circle cx="-4.6" cy="2.2" r="4.3"/><circle cx="4.6" cy="2.2" r="4.3"/><path d="M-2.6 9.6 C -1 6 -0.6 4.6 -1.2 1.4 C 0 3 0 3 1.2 1.4 C 0.6 4.6 1 6 2.6 9.6 Z"/></g></g><g transform="translate(219,308) rotate(180)"><text x="0" y="0" text-anchor="middle" font-family="Arial, sans-serif" font-weight="700" font-size="30" fill="#1b1b1b">10</text><g transform="translate(0,21) scale(0.8)" fill="#1b1b1b"><circle cx="0" cy="-4.2" r="4.3"/><circle cx="-4.6" cy="2.2" r="4.3"/><circle cx="4.6" cy="2.2" r="4.3"/><path d="M-2.6 9.6 C -1 6 -0.6 4.6 -1.2 1.4 C 0 3 0 3 1.2 1.4 C 0.6 4.6 1 6 2.6 9.6 Z"/></g></g><g transform="translate(84.0,74.0) scale(1.6)" fill="#1b1b1b"><circle cx="0" cy="-4.2" r="4.3"/><circle cx="-4.6" cy="2.2" r="4.3"/><circle cx="4.6" cy="2.2" r="4.3"/><path d="M-2.6 9.6 C -1 6 -0.6 4.6 -1.2 1.4 C 0 3 0 3 1.2 1.4 C 0.6 4.6 1 6 2.6 9.6 Z"/></g><g transform="translate(166.0,74.0) scale(1.6)" fill="#1b1b1b"><circle cx="0" cy="-4.2" r="4.3"/><circle cx="-4.6" cy="2.2" r="4.3"/><circle cx="4.6" cy="2.2" r="4.3"/><path d="M-2.6 9.6 C -1 6 -0.6 4.6 -1.2 1.4 C 0 3 0 3 1.2 1.4 C 0.6 4.6 1 6 2.6 9.6 Z"/></g><g transform="translate(125.0,107.7) scale(1.6)" fill="#1b1b1b"><circle cx="0" cy="-4.2" r="4.3"/><circle cx="-4.6" cy="2.2" r="4.3"/><circle cx="4.6" cy="2.2" r="4.3"/><path d="M-2.6 9.6 C -1 6 -0.6 4.6 -1.2 1.4 C 0 3 0 3 1.2 1.4 C 0.6 4.6 1 6 2.6 9.6 Z"/></g><g transform="translate(84.0,141.3) scale(1.6)" fill="#1b1b1b"><circle cx="0" cy="-4.2" r="4.3"/><circle cx="-4.6" cy="2.2" r="4.3"/><circle cx="4.6" cy="2.2" r="4.3"/><path d="M-2.6 9.6 C -1 6 -0.6 4.6 -1.2 1.4 C 0 3 0 3 1.2 1.4 C 0.6 4.6 1 6 2.6 9.6 Z"/></g><g transform="translate(166.0,141.3) scale(1.6)" fill="#1b1b1b"><circle cx="0" cy="-4.2" r="4.3"/><circle cx="-4.6" cy="2.2" r="4.3"/><circle cx="4.6" cy="2.2" r="4.3"/><path d="M-2.6 9.6 C -1 6 -0.6 4.6 -1.2 1.4 C 0 3 0 3 1.2 1.4 C 0.6 4.6 1 6 2.6 9.6 Z"/></g><g transform="translate(84.0,208.7) scale(1.6) rotate(180)" fill="#1b1b1b"><circle cx="0" cy="-4.2" r="4.3"/><circle cx="-4.6" cy="2.2" r="4.3"/><circle cx="4.6" cy="2.2" r="4.3"/><path d="M-2.6 9.6 C -1 6 -0.6 4.6 -1.2 1.4 C 0 3 0 3 1.2 1.4 C 0.6 4.6 1 6 2.6 9.6 Z"/></g><g transform="translate(166.0,208.7) scale(1.6) rotate(180)" fill="#1b1b1b"><circle cx="0" cy="-4.2" r="4.3"/><circle cx="-4.6" cy="2.2" r="4.3"/><circle cx="4.6" cy="2.2" r="4.3"/><path d="M-2.6 9.6 C -1 6 -0.6 4.6 -1.2 1.4 C 0 3 0 3 1.2 1.4 C 0.6 4.6 1 6 2.6 9.6 Z"/></g><g transform="translate(125.0,242.3) scale(1.6) rotate(180)" fill="#1b1b1b"><circle cx="0" cy="-4.2" r="4.3"/><circle cx="-4.6" cy="2.2" r="4.3"/><circle cx="4.6" cy="2.2" r="4.3"/><path d="M-2.6 9.6 C -1 6 -0.6 4.6 -1.2 1.4 C 0 3 0 3 1.2 1.4 C 0.6 4.6 1 6 2.6 9.6 Z"/></g><g transform="translate(84.0,276.0) scale(1.6) rotate(180)" fill="#1b1b1b"><circle cx="0" cy="-4.2" r="4.3"/><circle cx="-4.6" cy="2.2" r="4.3"/><circle cx="4.6" cy="2.2" r="4.3"/><path d="M-2.6 9.6 C -1 6 -0.6 4.6 -1.2 1.4 C 0 3 0 3 1.2 1.4 C 0.6 4.6 1 6 2.6 9.6 Z"/></g><g transform="translate(166.0,276.0) scale(1.6) rotate(180)" fill="#1b1b1b"><circle cx="0" cy="-4.2" r="4.3"/><circle cx="-4.6" cy="2.2" r="4.3"/><circle cx="4.6" cy="2.2" r="4.3"/><path d="M-2.6 9.6 C -1 6 -0.6 4.6 -1.2 1.4 C 0 3 0 3 1.2 1.4 C 0.6 4.6 1 6 2.6 9.6 Z"/></g></symbol><symbol id="card-JC" viewBox="0 0 250 350"><rect x="3" y="3" width="244" height="344" rx="18" fill="#ffffff" stroke="#d6d6d6" stroke-width="2"/><g transform="translate(31,42)"><text x="0" y="0" text-anchor="middle" font-family="Arial, sans-serif" font-weight="700" font-size="36" fill="#1b1b1b">J</text><g transform="translate(0,21) scale(0.8)" fill="#1b1b1b"><circle cx="0" cy="-4.2" r="4.3"/><circle cx="-4.6" cy="2.2" r="4.3"/><circle cx="4.6" cy="2.2" r="4.3"/><path d="M-2.6 9.6 C -1 6 -0.6 4.6 -1.2 1.4 C 0 3 0 3 1.2 1.4 C 0.6 4.6 1 6 2.6 9.6 Z"/></g></g><g transform="translate(219,308) rotate(180)"><text x="0" y="0" text-anchor="middle" font-family="Arial, sans-serif" font-weight="700" font-size="36" fill="#1b1b1b">J</text><g transform="translate(0,21) scale(0.8)" fill="#1b1b1b"><circle cx="0" cy="-4.2" r="4.3"/><circle cx="-4.6" cy="2.2" r="4.3"/><circle cx="4.6" cy="2.2" r="4.3"/><path d="M-2.6 9.6 C -1 6 -0.6 4.6 -1.2 1.4 C 0 3 0 3 1.2 1.4 C 0.6 4.6 1 6 2.6 9.6 Z"/></g></g><rect x="42" y="50" width="166" height="250" rx="10" fill="none" stroke="#1b1b1b" stroke-width="2" opacity=".4"/><rect x="48" y="56" width="154" height="238" rx="8" fill="none" stroke="#c9a24a" stroke-width="1.5" opacity=".7"/><g transform="translate(125.0,92.0) scale(1.8)" fill="#1b1b1b"><circle cx="0" cy="-4.2" r="4.3"/><circle cx="-4.6" cy="2.2" r="4.3"/><circle cx="4.6" cy="2.2" r="4.3"/><path d="M-2.6 9.6 C -1 6 -0.6 4.6 -1.2 1.4 C 0 3 0 3 1.2 1.4 C 0.6 4.6 1 6 2.6 9.6 Z"/></g><g transform="translate(125.0,258.0) scale(1.8) rotate(180)" fill="#1b1b1b"><circle cx="0" cy="-4.2" r="4.3"/><circle cx="-4.6" cy="2.2" r="4.3"/><circle cx="4.6" cy="2.2" r="4.3"/><path d="M-2.6 9.6 C -1 6 -0.6 4.6 -1.2 1.4 C 0 3 0 3 1.2 1.4 C 0.6 4.6 1 6 2.6 9.6 Z"/></g><text x="125" y="206" text-anchor="middle" font-family="Georgia, serif" font-weight="700" font-size="120" fill="#1b1b1b">J</text></symbol><symbol id="card-QC" viewBox="0 0 250 350"><rect x="3" y="3" width="244" height="344" rx="18" fill="#ffffff" stroke="#d6d6d6" stroke-width="2"/><g transform="translate(31,42)"><text x="0" y="0" text-anchor="middle" font-family="Arial, sans-serif" font-weight="700" font-size="36" fill="#1b1b1b">Q</text><g transform="translate(0,21) scale(0.8)" fill="#1b1b1b"><circle cx="0" cy="-4.2" r="4.3"/><circle cx="-4.6" cy="2.2" r="4.3"/><circle cx="4.6" cy="2.2" r="4.3"/><path d="M-2.6 9.6 C -1 6 -0.6 4.6 -1.2 1.4 C 0 3 0 3 1.2 1.4 C 0.6 4.6 1 6 2.6 9.6 Z"/></g></g><g transform="translate(219,308) rotate(180)"><text x="0" y="0" text-anchor="middle" font-family="Arial, sans-serif" font-weight="700" font-size="36" fill="#1b1b1b">Q</text><g transform="translate(0,21) scale(0.8)" fill="#1b1b1b"><circle cx="0" cy="-4.2" r="4.3"/><circle cx="-4.6" cy="2.2" r="4.3"/><circle cx="4.6" cy="2.2" r="4.3"/><path d="M-2.6 9.6 C -1 6 -0.6 4.6 -1.2 1.4 C 0 3 0 3 1.2 1.4 C 0.6 4.6 1 6 2.6 9.6 Z"/></g></g><rect x="42" y="50" width="166" height="250" rx="10" fill="none" stroke="#1b1b1b" stroke-width="2" opacity=".4"/><rect x="48" y="56" width="154" height="238" rx="8" fill="none" stroke="#c9a24a" stroke-width="1.5" opacity=".7"/><g transform="translate(125.0,92.0) scale(1.8)" fill="#1b1b1b"><circle cx="0" cy="-4.2" r="4.3"/><circle cx="-4.6" cy="2.2" r="4.3"/><circle cx="4.6" cy="2.2" r="4.3"/><path d="M-2.6 9.6 C -1 6 -0.6 4.6 -1.2 1.4 C 0 3 0 3 1.2 1.4 C 0.6 4.6 1 6 2.6 9.6 Z"/></g><g transform="translate(125.0,258.0) scale(1.8) rotate(180)" fill="#1b1b1b"><circle cx="0" cy="-4.2" r="4.3"/><circle cx="-4.6" cy="2.2" r="4.3"/><circle cx="4.6" cy="2.2" r="4.3"/><path d="M-2.6 9.6 C -1 6 -0.6 4.6 -1.2 1.4 C 0 3 0 3 1.2 1.4 C 0.6 4.6 1 6 2.6 9.6 Z"/></g><text x="125" y="206" text-anchor="middle" font-family="Georgia, serif" font-weight="700" font-size="120" fill="#1b1b1b">Q</text></symbol><symbol id="card-KC" viewBox="0 0 250 350"><rect x="3" y="3" width="244" height="344" rx="18" fill="#ffffff" stroke="#d6d6d6" stroke-width="2"/><g transform="translate(31,42)"><text x="0" y="0" text-anchor="middle" font-family="Arial, sans-serif" font-weight="700" font-size="36" fill="#1b1b1b">K</text><g transform="translate(0,21) scale(0.8)" fill="#1b1b1b"><circle cx="0" cy="-4.2" r="4.3"/><circle cx="-4.6" cy="2.2" r="4.3"/><circle cx="4.6" cy="2.2" r="4.3"/><path d="M-2.6 9.6 C -1 6 -0.6 4.6 -1.2 1.4 C 0 3 0 3 1.2 1.4 C 0.6 4.6 1 6 2.6 9.6 Z"/></g></g><g transform="translate(219,308) rotate(180)"><text x="0" y="0" text-anchor="middle" font-family="Arial, sans-serif" font-weight="700" font-size="36" fill="#1b1b1b">K</text><g transform="translate(0,21) scale(0.8)" fill="#1b1b1b"><circle cx="0" cy="-4.2" r="4.3"/><circle cx="-4.6" cy="2.2" r="4.3"/><circle cx="4.6" cy="2.2" r="4.3"/><path d="M-2.6 9.6 C -1 6 -0.6 4.6 -1.2 1.4 C 0 3 0 3 1.2 1.4 C 0.6 4.6 1 6 2.6 9.6 Z"/></g></g><rect x="42" y="50" width="166" height="250" rx="10" fill="none" stroke="#1b1b1b" stroke-width="2" opacity=".4"/><rect x="48" y="56" width="154" height="238" rx="8" fill="none" stroke="#c9a24a" stroke-width="1.5" opacity=".7"/><g transform="translate(125.0,92.0) scale(1.8)" fill="#1b1b1b"><circle cx="0" cy="-4.2" r="4.3"/><circle cx="-4.6" cy="2.2" r="4.3"/><circle cx="4.6" cy="2.2" r="4.3"/><path d="M-2.6 9.6 C -1 6 -0.6 4.6 -1.2 1.4 C 0 3 0 3 1.2 1.4 C 0.6 4.6 1 6 2.6 9.6 Z"/></g><g transform="translate(125.0,258.0) scale(1.8) rotate(180)" fill="#1b1b1b"><circle cx="0" cy="-4.2" r="4.3"/><circle cx="-4.6" cy="2.2" r="4.3"/><circle cx="4.6" cy="2.2" r="4.3"/><path d="M-2.6 9.6 C -1 6 -0.6 4.6 -1.2 1.4 C 0 3 0 3 1.2 1.4 C 0.6 4.6 1 6 2.6 9.6 Z"/></g><text x="125" y="206" text-anchor="middle" font-family="Georgia, serif" font-weight="700" font-size="120" fill="#1b1b1b">K</text></symbol></svg>