<svg xmlns="http://www.w3.org/2000/svg" viewBox="0 0 200 200" width="200" height="200"><defs><linearGradient id="rim" x1="0" y1="0" x2="0" y2="1"><stop offset="0" stop-color="#ffe79a"/><stop offset=".5" stop-color="#c89322"/><stop offset="1" stop-color="#7c560f"/></linearGradient><radialGradient id="face" cx="38%" cy="32%" r="80%"><stop offset="0" stop-color="#fff0bf"/><stop offset=".45" stop-color="#f2c64f"/><stop offset=".8" stop-color="#c8901f"/><stop offset="1" stop-color="#9a6c14"/></radialGradient><linearGradient id="flame" x1="0" y1="1" x2="0" y2="0"><stop offset="0" stop-color="#b81e0a"/><stop offset=".4" stop-color="#f2641a"/><stop offset=".72" stop-color="#ffa322"/><stop offset="1" stop-color="#ffe05a"/></linearGradient><radialGradient id="glow" cx="50%" cy="50%" r="50%"><stop offset="0" stop-color="#ff7a18" stop-opacity=".35"/><stop offset=".6" stop-color="#ff7a18" stop-opacity=".08"/><stop offset="1" stop-color="#ff7a18" stop-opacity="0"/></radialGradient><linearGradient id="tgold" x1="0" y1="0" x2="0" y2="1"><stop offset="0" stop-color="#fff2cf"/><stop offset=".5" stop-color="#e9b840"/><stop offset="1" stop-color="#a9781a"/></linearGradient><linearGradient id="tember" x1="0" y1="0" x2="0" y2="1"><stop offset="0" stop-color="#ffd9a0"/><stop offset=".5" stop-color="#ff8a2a"/><stop offset="1" stop-color="#e23b12"/></linearGradient><clipPath id="cclip"><circle cx="0" cy="0" r="58"/></clipPath><filter id="lsh" x="-30%" y="-30%" width="160%" height="180%"><feDropShadow dx="0" dy="2" stdDeviation="2" flood-color="#000" flood-opacity=".45"/></filter></defs><g transform="translate(100,100) scale(0.95)"><circle cx="0" cy="2" r="94" fill="url(#glow)"/><g fill="url(#flame)"><path d="M-18 76 C -23 50 -5 40 0 -16 C 5 40 23 50 18 76 Z"/><path d="M-53 72 C -57 50 -48 42 -40 8 C -32 42 -23 50 -27 72 Z"/><path d="M27 72 C 23 50 32 42 40 8 C 48 42 57 50 53 72 Z"/><path d="M-69 68 C -72 55 -66 50 -62 28 C -58 50 -52 55 -55 68 Z" opacity=".9"/><path d="M55 68 C 52 55 58 50 62 28 C 66 50 72 55 69 68 Z" opacity=".9"/></g><circle cx="0" cy="0" r="70" fill="url(#rim)"/><circle cx="0" cy="0" r="60" fill="url(#face)"/><circle cx="0" cy="0" r="60" fill="none" stroke="#7c560f" stroke-width="1.5" opacity=".5"/><g clip-path="url(#cclip)"><g stroke="#34200a" stroke-width="13" stroke-linecap="round" opacity=".8"><line x1="-40" y1="50" x2="58" y2="-48"/><line x1="-24" y1="64" x2="60" y2="-20"/><line x1="-56" y1="28" x2="30" y2="-58"/><line x1="-14" y1="64" x2="62" y2="-12"/><line x1="-50" y1="6" x2="16" y2="-60"/></g><g stroke="url(#flame)" stroke-width="2.6" stroke-linecap="round" opacity=".45"><line x1="-40" y1="46" x2="50" y2="-44"/><line x1="-30" y1="64" x2="54" y2="-20"/></g><path d="M-40 -34 A60 60 0 0 1 42 -42" fill="none" stroke="#fff3cf" stroke-width="4" stroke-linecap="round" opacity=".35"/></g><path d="M-12 80 C -16 64 -5.6 58 0 30 C 5.6 58 16 64 12 80 Z" fill="url(#flame)" opacity=".95"/><g fill="url(#flame)"><circle cx="-40" cy="-60" r="2.4" opacity=".85"/><circle cx="46" cy="-46" r="1.8" opacity=".8"/><circle cx="10" cy="-74" r="2" opacity=".85"/></g></g></svg>