<svg xmlns="http://www.w3.org/2000/svg" viewBox="0 0 250 350" width="250" height="350"><rect x="3" y="3" width="244" height="344" rx="18" fill="#ffffff" stroke="#d6d6d6" stroke-width="2"/><g transform="translate(31,42)"><text x="0" y="0" text-anchor="middle" font-family="Arial, sans-serif" font-weight="700" font-size="30" fill="#1b1b1b">10</text><g transform="translate(0,21) scale(0.8)" fill="#1b1b1b"><path d="M0 -8 C 1 -5 9 -1.5 9 4 C 9 9 2.5 10 0 5 C -2.5 10 -9 9 -9 4 C -9 -1.5 -1 -5 0 -8 Z M -3.4 9.6 C -1.3 6.6 -0.6 5 0 3.1 C 0.6 5 1.3 6.6 3.4 9.6 Z"/></g></g><g transform="translate(219,308) rotate(180)"><text x="0" y="0" text-anchor="middle" font-family="Arial, sans-serif" font-weight="700" font-size="30" fill="#1b1b1b">10</text><g transform="translate(0,21) scale(0.8)" fill="#1b1b1b"><path d="M0 -8 C 1 -5 9 -1.5 9 4 C 9 9 2.5 10 0 5 C -2.5 10 -9 9 -9 4 C -9 -1.5 -1 -5 0 -8 Z M -3.4 9.6 C -1.3 6.6 -0.6 5 0 3.1 C 0.6 5 1.3 6.6 3.4 9.6 Z"/></g></g><g transform="translate(84.0,74.0) scale(1.6)" fill="#1b1b1b"><path d="M0 -8 C 1 -5 9 -1.5 9 4 C 9 9 2.5 10 0 5 C -2.5 10 -9 9 -9 4 C -9 -1.5 -1 -5 0 -8 Z M -3.4 9.6 C -1.3 6.6 -0.6 5 0 3.1 C 0.6 5 1.3 6.6 3.4 9.6 Z"/></g><g transform="translate(166.0,74.0) scale(1.6)" fill="#1b1b1b"><path d="M0 -8 C 1 -5 9 -1.5 9 4 C 9 9 2.5 10 0 5 C -2.5 10 -9 9 -9 4 C -9 -1.5 -1 -5 0 -8 Z M -3.4 9.6 C -1.3 6.6 -0.6 5 0 3.1 C 0.6 5 1.3 6.6 3.4 9.6 Z"/></g><g transform="translate(125.0,107.7) scale(1.6)" fill="#1b1b1b"><path d="M0 -8 C 1 -5 9 -1.5 9 4 C 9 9 2.5 10 0 5 C -2.5 10 -9 9 -9 4 C -9 -1.5 -1 -5 0 -8 Z M -3.4 9.6 C -1.3 6.6 -0.6 5 0 3.1 C 0.6 5 1.3 6.6 3.4 9.6 Z"/></g><g transform="translate(84.0,141.3) scale(1.6)" fill="#1b1b1b"><path d="M0 -8 C 1 -5 9 -1.5 9 4 C 9 9 2.5 10 0 5 C -2.5 10 -9 9 -9 4 C -9 -1.5 -1 -5 0 -8 Z M -3.4 9.6 C -1.3 6.6 -0.6 5 0 3.1 C 0.6 5 1.3 6.6 3.4 9.6 Z"/></g><g transform="translate(166.0,141.3) scale(1.6)" fill="#1b1b1b"><path d="M0 -8 C 1 -5 9 -1.5 9 4 C 9 9 2.5 10 0 5 C -2.5 10 -9 9 -9 4 C -9 -1.5 -1 -5 0 -8 Z M -3.4 9.6 C -1.3 6.6 -0.6 5 0 3.1 C 0.6 5 1.3 6.6 3.4 9.6 Z"/></g><g transform="translate(84.0,208.7) scale(1.6) rotate(180)" fill="#1b1b1b"><path d="M0 -8 C 1 -5 9 -1.5 9 4 C 9 9 2.5 10 0 5 C -2.5 10 -9 9 -9 4 C -9 -1.5 -1 -5 0 -8 Z M -3.4 9.6 C -1.3 6.6 -0.6 5 0 3.1 C 0.6 5 1.3 6.6 3.4 9.6 Z"/></g><g transform="translate(166.0,208.7) scale(1.6) rotate(180)" fill="#1b1b1b"><path d="M0 -8 C 1 -5 9 -1.5 9 4 C 9 9 2.5 10 0 5 C -2.5 10 -9 9 -9 4 C -9 -1.5 -1 -5 0 -8 Z M -3.4 9.6 C -1.3 6.6 -0.6 5 0 3.1 C 0.6 5 1.3 6.6 3.4 9.6 Z"/></g><g transform="translate(125.0,242.3) scale(1.6) rotate(180)" fill="#1b1b1b"><path d="M0 -8 C 1 -5 9 -1.5 9 4 C 9 9 2.5 10 0 5 C -2.5 10 -9 9 -9 4 C -9 -1.5 -1 -5 0 -8 Z M -3.4 9.6 C -1.3 6.6 -0.6 5 0 3.1 C 0.6 5 1.3 6.6 3.4 9.6 Z"/></g><g transform="translate(84.0,276.0) scale(1.6) rotate(180)" fill="#1b1b1b"><path d="M0 -8 C 1 -5 9 -1.5 9 4 C 9 9 2.5 10 0 5 C -2.5 10 -9 9 -9 4 C -9 -1.5 -1 -5 0 -8 Z M -3.4 9.6 C -1.3 6.6 -0.6 5 0 3.1 C 0.6 5 1.3 6.6 3.4 9.6 Z"/></g><g transform="translate(166.0,276.0) scale(1.6) rotate(180)" fill="#1b1b1b"><path d="M0 -8 C 1 -5 9 -1.5 9 4 C 9 9 2.5 10 0 5 C -2.5 10 -9 9 -9 4 C -9 -1.5 -1 -5 0 -8 Z M -3.4 9.6 C -1.3 6.6 -0.6 5 0 3.1 C 0.6 5 1.3 6.6 3.4 9.6 Z"/></g></svg>