<svg xmlns="http://www.w3.org/2000/svg" viewBox="0 0 250 350" width="250" height="350"><rect x="3" y="3" width="244" height="344" rx="18" fill="#ffffff" stroke="#d6d6d6" stroke-width="2"/><g transform="translate(31,42)"><text x="0" y="0" text-anchor="middle" font-family="Arial, sans-serif" font-weight="700" font-size="36" fill="#cf1f2d">J</text><g transform="translate(0,21) scale(0.8)" fill="#cf1f2d"><path d="M0 -9 L 7 0 L 0 9 L -7 0 Z"/></g></g><g transform="translate(219,308) rotate(180)"><text x="0" y="0" text-anchor="middle" font-family="Arial, sans-serif" font-weight="700" font-size="36" fill="#cf1f2d">J</text><g transform="translate(0,21) scale(0.8)" fill="#cf1f2d"><path d="M0 -9 L 7 0 L 0 9 L -7 0 Z"/></g></g><rect x="42" y="50" width="166" height="250" rx="10" fill="none" stroke="#cf1f2d" stroke-width="2" opacity=".4"/><rect x="48" y="56" width="154" height="238" rx="8" fill="none" stroke="#c9a24a" stroke-width="1.5" opacity=".7"/><g transform="translate(125.0,92.0) scale(1.8)" fill="#cf1f2d"><path d="M0 -9 L 7 0 L 0 9 L -7 0 Z"/></g><g transform="translate(125.0,258.0) scale(1.8) rotate(180)" fill="#cf1f2d"><path d="M0 -9 L 7 0 L 0 9 L -7 0 Z"/></g><text x="125" y="206" text-anchor="middle" font-family="Georgia, serif" font-weight="700" font-size="120" fill="#cf1f2d">J</text></svg>