<svg xmlns="http://www.w3.org/2000/svg" viewBox="0 0 250 350" width="250" height="350"><rect x="3" y="3" width="244" height="344" rx="18" fill="#ffffff" stroke="#d6d6d6" stroke-width="2"/><g transform="translate(31,42)"><text x="0" y="0" text-anchor="middle" font-family="Arial, sans-serif" font-weight="700" font-size="36" fill="#1b1b1b">K</text><g transform="translate(0,21) scale(0.8)" fill="#1b1b1b"><circle cx="0" cy="-4.2" r="4.3"/><circle cx="-4.6" cy="2.2" r="4.3"/><circle cx="4.6" cy="2.2" r="4.3"/><path d="M-2.6 9.6 C -1 6 -0.6 4.6 -1.2 1.4 C 0 3 0 3 1.2 1.4 C 0.6 4.6 1 6 2.6 9.6 Z"/></g></g><g transform="translate(219,308) rotate(180)"><text x="0" y="0" text-anchor="middle" font-family="Arial, sans-serif" font-weight="700" font-size="36" fill="#1b1b1b">K</text><g transform="translate(0,21) scale(0.8)" fill="#1b1b1b"><circle cx="0" cy="-4.2" r="4.3"/><circle cx="-4.6" cy="2.2" r="4.3"/><circle cx="4.6" cy="2.2" r="4.3"/><path d="M-2.6 9.6 C -1 6 -0.6 4.6 -1.2 1.4 C 0 3 0 3 1.2 1.4 C 0.6 4.6 1 6 2.6 9.6 Z"/></g></g><rect x="42" y="50" width="166" height="250" rx="10" fill="none" stroke="#1b1b1b" stroke-width="2" opacity=".4"/><rect x="48" y="56" width="154" height="238" rx="8" fill="none" stroke="#c9a24a" stroke-width="1.5" opacity=".7"/><g transform="translate(125.0,92.0) scale(1.8)" fill="#1b1b1b"><circle cx="0" cy="-4.2" r="4.3"/><circle cx="-4.6" cy="2.2" r="4.3"/><circle cx="4.6" cy="2.2" r="4.3"/><path d="M-2.6 9.6 C -1 6 -0.6 4.6 -1.2 1.4 C 0 3 0 3 1.2 1.4 C 0.6 4.6 1 6 2.6 9.6 Z"/></g><g transform="translate(125.0,258.0) scale(1.8) rotate(180)" fill="#1b1b1b"><circle cx="0" cy="-4.2" r="4.3"/><circle cx="-4.6" cy="2.2" r="4.3"/><circle cx="4.6" cy="2.2" r="4.3"/><path d="M-2.6 9.6 C -1 6 -0.6 4.6 -1.2 1.4 C 0 3 0 3 1.2 1.4 C 0.6 4.6 1 6 2.6 9.6 Z"/></g><text x="125" y="206" text-anchor="middle" font-family="Georgia, serif" font-weight="700" font-size="120" fill="#1b1b1b">K</text></svg>